<?xml version="1.0" encoding="UTF-8"?>
<!-- Generator: Adobe Illustrator 16.0.0, SVG Export Plug-In . SVG Version: 6.00 Build 0)  -->
<!DOCTYPE svg PUBLIC "-//W3C//DTD SVG 1.1//EN" "http://www.w3.org/Graphics/SVG/1.1/DTD/svg11.dtd">
<svg version="1.1" id="Layer_1" xmlns="http://www.w3.org/2000/svg" xmlns:xlink="http://www.w3.org/1999/xlink" x="0px" y="0px" width="220px" height="52px" viewBox="0 0 220 52" enable-background="new 0 0 220 52" xml:space="preserve">
<g>
	<g>
		<g>
			<path d="M35.938,33.059v5.134h-0.662v-5.134H35.938z"/>
			<path d="M37.147,35.504c0-0.381-0.007-0.693-0.031-0.998h0.595l0.038,0.61h0.015c0.183-0.351,0.61-0.693,1.219-0.693     c0.511,0,1.303,0.305,1.303,1.569v2.2h-0.67v-2.125c0-0.594-0.22-1.089-0.853-1.089c-0.442,0-0.785,0.312-0.899,0.686     c-0.03,0.084-0.046,0.198-0.046,0.313v2.216h-0.67V35.504z"/>
			<path d="M42.149,33.448v1.059h0.96v0.511h-0.96v1.988c0,0.457,0.129,0.716,0.503,0.716c0.175,0,0.305-0.022,0.389-0.046     l0.03,0.503c-0.129,0.053-0.335,0.092-0.594,0.092c-0.312,0-0.564-0.1-0.723-0.282c-0.191-0.198-0.259-0.525-0.259-0.96v-2.011     h-0.572v-0.511h0.572v-0.883L42.149,33.448z"/>
			<path d="M44.188,36.472c0.016,0.906,0.595,1.279,1.265,1.279c0.48,0,0.769-0.084,1.021-0.19l0.114,0.48     c-0.237,0.105-0.641,0.229-1.227,0.229c-1.134,0-1.813-0.747-1.813-1.859c0-1.111,0.655-1.987,1.729-1.987     c1.204,0,1.523,1.059,1.523,1.736c0,0.137-0.015,0.244-0.022,0.313H44.188z M46.154,35.993c0.008-0.428-0.175-1.09-0.929-1.09     c-0.678,0-0.975,0.625-1.028,1.09H46.154z"/>
			<path d="M47.629,35.657c0-0.435-0.007-0.808-0.031-1.15h0.586l0.023,0.725h0.031c0.167-0.496,0.571-0.808,1.021-0.808     c0.076,0,0.129,0.007,0.19,0.022v0.632c-0.068-0.015-0.137-0.022-0.229-0.022c-0.472,0-0.807,0.358-0.898,0.86     c-0.015,0.092-0.031,0.198-0.031,0.313v1.965h-0.663V35.657z"/>
			<path d="M50.148,35.504c0-0.381-0.007-0.693-0.03-0.998h0.594l0.038,0.61h0.016c0.183-0.351,0.609-0.693,1.219-0.693     c0.511,0,1.302,0.305,1.302,1.569v2.2h-0.67v-2.125c0-0.594-0.221-1.089-0.853-1.089c-0.442,0-0.785,0.312-0.899,0.686     c-0.03,0.084-0.045,0.198-0.045,0.313v2.216h-0.67V35.504z"/>
			<path d="M56.414,38.193l-0.053-0.465h-0.023c-0.205,0.29-0.602,0.549-1.127,0.549c-0.747,0-1.128-0.525-1.128-1.059     c0-0.892,0.792-1.379,2.217-1.371v-0.076c0-0.305-0.083-0.854-0.838-0.854c-0.343,0-0.701,0.107-0.96,0.274L54.35,34.75     c0.305-0.198,0.747-0.327,1.21-0.327c1.128,0,1.402,0.769,1.402,1.508v1.379c0,0.319,0.015,0.632,0.061,0.883H56.414z      M56.315,36.312c-0.731-0.016-1.562,0.114-1.562,0.83c0,0.435,0.289,0.64,0.632,0.64c0.479,0,0.784-0.305,0.891-0.616     c0.023-0.069,0.039-0.146,0.039-0.214V36.312z"/>
			<path d="M58.819,33.448v1.059h0.96v0.511h-0.96v1.988c0,0.457,0.13,0.716,0.503,0.716c0.175,0,0.305-0.022,0.389-0.046     l0.03,0.503c-0.129,0.053-0.335,0.092-0.594,0.092c-0.312,0-0.564-0.1-0.723-0.282c-0.191-0.198-0.259-0.525-0.259-0.96v-2.011     h-0.572v-0.511h0.572v-0.883L58.819,33.448z"/>
			<path d="M61.277,33.47c0.008,0.229-0.16,0.412-0.426,0.412c-0.236,0-0.404-0.184-0.404-0.412c0-0.235,0.175-0.418,0.419-0.418     C61.117,33.052,61.277,33.235,61.277,33.47z M60.531,38.193v-3.687h0.67v3.687H60.531z"/>
			<path d="M65.648,36.32c0,1.363-0.945,1.957-1.835,1.957c-0.999,0-1.768-0.731-1.768-1.896c0-1.234,0.807-1.957,1.828-1.957     C64.932,34.423,65.648,35.192,65.648,36.32z M62.724,36.358c0,0.808,0.464,1.416,1.119,1.416c0.64,0,1.12-0.602,1.12-1.432     c0-0.624-0.312-1.417-1.104-1.417C63.066,34.925,62.724,35.657,62.724,36.358z"/>
			<path d="M66.491,35.504c0-0.381-0.007-0.693-0.031-0.998h0.595l0.038,0.61h0.015c0.183-0.351,0.61-0.693,1.219-0.693     c0.511,0,1.303,0.305,1.303,1.569v2.2h-0.67v-2.125c0-0.594-0.22-1.089-0.853-1.089c-0.442,0-0.785,0.312-0.899,0.686     c-0.031,0.084-0.046,0.198-0.046,0.313v2.216h-0.67V35.504z"/>
			<path d="M72.757,38.193l-0.053-0.465h-0.023c-0.206,0.29-0.602,0.549-1.127,0.549c-0.746,0-1.127-0.525-1.127-1.059     c0-0.892,0.792-1.379,2.217-1.371v-0.076c0-0.305-0.083-0.854-0.838-0.854c-0.343,0-0.701,0.107-0.96,0.274l-0.152-0.441     c0.305-0.198,0.746-0.327,1.21-0.327c1.128,0,1.402,0.769,1.402,1.508v1.379c0,0.319,0.015,0.632,0.06,0.883H72.757z      M72.658,36.312c-0.731-0.016-1.561,0.114-1.561,0.83c0,0.435,0.289,0.64,0.632,0.64c0.479,0,0.785-0.305,0.891-0.616     c0.023-0.069,0.039-0.146,0.039-0.214V36.312z"/>
			<path d="M74.385,32.785h0.67v5.408h-0.67V32.785z"/>
			<path d="M77.817,33.127c0.403-0.06,0.884-0.105,1.409-0.105c0.953,0,1.631,0.22,2.08,0.64c0.457,0.419,0.724,1.013,0.724,1.843     c0,0.838-0.259,1.523-0.739,1.995c-0.479,0.48-1.272,0.739-2.27,0.739c-0.472,0-0.869-0.022-1.204-0.061V33.127z M78.48,37.667     c0.168,0.031,0.412,0.038,0.67,0.038c1.417,0,2.186-0.792,2.186-2.178c0.008-1.212-0.678-1.98-2.08-1.98     c-0.343,0-0.602,0.03-0.777,0.068V37.667z"/>
			<path d="M83.268,36.472c0.015,0.906,0.594,1.279,1.265,1.279c0.48,0,0.769-0.084,1.021-0.19l0.114,0.48     c-0.236,0.105-0.64,0.229-1.227,0.229c-1.134,0-1.813-0.747-1.813-1.859c0-1.111,0.655-1.987,1.729-1.987     c1.203,0,1.523,1.059,1.523,1.736c0,0.137-0.015,0.244-0.022,0.313H83.268z M85.233,35.993c0.008-0.428-0.175-1.09-0.929-1.09     c-0.678,0-0.975,0.625-1.028,1.09H85.233z"/>
			<path d="M86.967,34.506l0.724,2.072c0.122,0.335,0.22,0.64,0.297,0.944h0.022c0.084-0.305,0.19-0.609,0.313-0.944l0.716-2.072     h0.701l-1.447,3.687h-0.64l-1.401-3.687H86.967z"/>
			<path d="M90.666,36.472c0.016,0.906,0.595,1.279,1.265,1.279c0.48,0,0.769-0.084,1.021-0.19l0.114,0.48     c-0.237,0.105-0.641,0.229-1.227,0.229c-1.134,0-1.813-0.747-1.813-1.859c0-1.111,0.655-1.987,1.729-1.987     c1.204,0,1.523,1.059,1.523,1.736c0,0.137-0.015,0.244-0.022,0.313H90.666z M92.631,35.993c0.008-0.428-0.175-1.09-0.929-1.09     c-0.678,0-0.975,0.625-1.028,1.09H92.631z"/>
			<path d="M94.106,32.785h0.67v5.408h-0.67V32.785z"/>
			<path d="M99.24,36.32c0,1.363-0.945,1.957-1.836,1.957c-0.998,0-1.767-0.731-1.767-1.896c0-1.234,0.807-1.957,1.828-1.957     C98.523,34.423,99.24,35.192,99.24,36.32z M96.315,36.358c0,0.808,0.464,1.416,1.119,1.416c0.641,0,1.12-0.602,1.12-1.432     c0-0.624-0.313-1.417-1.104-1.417S96.315,35.657,96.315,36.358z"/>
			<path d="M100.082,35.71c0-0.473-0.015-0.854-0.03-1.204h0.602l0.031,0.633h0.015c0.274-0.45,0.708-0.716,1.311-0.716     c0.891,0,1.561,0.753,1.561,1.873c0,1.326-0.808,1.98-1.675,1.98c-0.488,0-0.914-0.213-1.135-0.578h-0.015v2.003h-0.663V35.71z      M100.745,36.693c0,0.099,0.015,0.19,0.03,0.274c0.122,0.464,0.525,0.784,1.006,0.784c0.708,0,1.12-0.579,1.12-1.425     c0-0.738-0.389-1.37-1.097-1.37c-0.457,0-0.883,0.327-1.013,0.83c-0.023,0.083-0.046,0.183-0.046,0.274V36.693z"/>
			<path d="M104.413,35.504c0-0.381-0.007-0.693-0.03-0.998h0.586l0.03,0.595h0.023c0.205-0.351,0.548-0.678,1.157-0.678     c0.503,0,0.884,0.305,1.043,0.738h0.016c0.114-0.205,0.259-0.365,0.411-0.479c0.221-0.168,0.465-0.259,0.815-0.259     c0.487,0,1.21,0.319,1.21,1.599v2.171h-0.655v-2.086c0-0.709-0.259-1.136-0.799-1.136c-0.381,0-0.678,0.282-0.792,0.609     c-0.031,0.092-0.053,0.213-0.053,0.335v2.277h-0.655v-2.209c0-0.586-0.259-1.013-0.769-1.013c-0.419,0-0.724,0.335-0.831,0.671     c-0.039,0.099-0.053,0.213-0.053,0.327v2.224h-0.656V35.504z"/>
			<path d="M111.134,36.472c0.016,0.906,0.595,1.279,1.266,1.279c0.48,0,0.769-0.084,1.02-0.19l0.114,0.48     c-0.236,0.105-0.64,0.229-1.226,0.229c-1.135,0-1.813-0.747-1.813-1.859c0-1.111,0.654-1.987,1.729-1.987     c1.203,0,1.523,1.059,1.523,1.736c0,0.137-0.015,0.244-0.022,0.313H111.134z M113.101,35.993c0.008-0.428-0.176-1.09-0.93-1.09     c-0.679,0-0.976,0.625-1.028,1.09H113.101z"/>
			<path d="M114.575,35.504c0-0.381-0.009-0.693-0.031-0.998h0.594l0.039,0.61h0.015c0.183-0.351,0.61-0.693,1.219-0.693     c0.511,0,1.302,0.305,1.302,1.569v2.2h-0.669v-2.125c0-0.594-0.221-1.089-0.854-1.089c-0.441,0-0.784,0.312-0.898,0.686     c-0.031,0.084-0.047,0.198-0.047,0.313v2.216h-0.669V35.504z"/>
			<path d="M119.577,33.448v1.059h0.959v0.511h-0.959v1.988c0,0.457,0.129,0.716,0.502,0.716c0.176,0,0.306-0.022,0.388-0.046     l0.032,0.503c-0.13,0.053-0.336,0.092-0.595,0.092c-0.313,0-0.563-0.1-0.723-0.282c-0.191-0.198-0.261-0.525-0.261-0.96v-2.011     h-0.571v-0.511h0.571v-0.883L119.577,33.448z"/>
			<path d="M122.926,33.127c0.335-0.068,0.814-0.105,1.271-0.105c0.709,0,1.166,0.129,1.484,0.419     c0.261,0.229,0.404,0.578,0.404,0.975c0,0.678-0.426,1.127-0.967,1.31v0.023c0.396,0.137,0.632,0.502,0.754,1.035     c0.167,0.716,0.29,1.212,0.396,1.409h-0.685c-0.084-0.145-0.198-0.586-0.343-1.226c-0.151-0.709-0.427-0.975-1.028-0.998h-0.624     v2.224h-0.663V33.127z M123.589,35.466h0.677c0.71,0,1.158-0.389,1.158-0.975c0-0.663-0.48-0.952-1.181-0.96     c-0.32,0-0.549,0.03-0.654,0.061V35.466z"/>
			<path d="M127.4,36.472c0.017,0.906,0.596,1.279,1.265,1.279c0.481,0,0.77-0.084,1.021-0.19l0.114,0.48     c-0.236,0.105-0.641,0.229-1.227,0.229c-1.134,0-1.813-0.747-1.813-1.859c0-1.111,0.656-1.987,1.729-1.987     c1.203,0,1.523,1.059,1.523,1.736c0,0.137-0.015,0.244-0.022,0.313H127.4z M129.366,35.993c0.009-0.428-0.175-1.09-0.93-1.09     c-0.677,0-0.975,0.625-1.028,1.09H129.366z"/>
			<path d="M130.751,37.508c0.196,0.129,0.547,0.266,0.882,0.266c0.488,0,0.717-0.243,0.717-0.548c0-0.32-0.191-0.495-0.686-0.678     c-0.664-0.236-0.975-0.602-0.975-1.044c0-0.594,0.479-1.081,1.271-1.081c0.373,0,0.7,0.106,0.907,0.229l-0.168,0.487     c-0.146-0.092-0.411-0.214-0.754-0.214c-0.396,0-0.618,0.229-0.618,0.503c0,0.305,0.222,0.441,0.7,0.625     c0.641,0.243,0.969,0.563,0.969,1.112c0,0.647-0.504,1.104-1.379,1.104c-0.404,0-0.777-0.1-1.036-0.252L130.751,37.508z"/>
			<path d="M134.229,36.472c0.016,0.906,0.595,1.279,1.264,1.279c0.481,0,0.771-0.084,1.021-0.19l0.114,0.48     c-0.236,0.105-0.64,0.229-1.226,0.229c-1.135,0-1.813-0.747-1.813-1.859c0-1.111,0.655-1.987,1.729-1.987     c1.203,0,1.524,1.059,1.524,1.736c0,0.137-0.016,0.244-0.023,0.313H134.229z M136.194,35.993c0.008-0.428-0.176-1.09-0.931-1.09     c-0.677,0-0.975,0.625-1.027,1.09H136.194z"/>
			<path d="M139.711,38.193l-0.053-0.465h-0.024c-0.205,0.29-0.602,0.549-1.126,0.549c-0.746,0-1.129-0.525-1.129-1.059     c0-0.892,0.793-1.379,2.218-1.371v-0.076c0-0.305-0.085-0.854-0.839-0.854c-0.343,0-0.7,0.107-0.959,0.274l-0.151-0.441     c0.304-0.198,0.746-0.327,1.21-0.327c1.128,0,1.401,0.769,1.401,1.508v1.379c0,0.319,0.016,0.632,0.061,0.883H139.711z      M139.611,36.312c-0.731-0.016-1.561,0.114-1.561,0.83c0,0.435,0.288,0.64,0.633,0.64c0.478,0,0.783-0.305,0.89-0.616     c0.023-0.069,0.038-0.146,0.038-0.214V36.312z"/>
			<path d="M141.337,35.657c0-0.435-0.007-0.808-0.029-1.15h0.586l0.022,0.725h0.032c0.167-0.496,0.571-0.808,1.02-0.808     c0.076,0,0.129,0.007,0.19,0.022v0.632c-0.067-0.015-0.137-0.022-0.229-0.022c-0.472,0-0.808,0.358-0.899,0.86     c-0.015,0.092-0.029,0.198-0.029,0.313v1.965h-0.664V35.657z"/>
			<path d="M146.379,38.056c-0.175,0.091-0.563,0.214-1.059,0.214c-1.111,0-1.835-0.755-1.835-1.882c0-1.135,0.776-1.958,1.98-1.958     c0.396,0,0.746,0.1,0.93,0.19l-0.153,0.519c-0.16-0.092-0.411-0.176-0.776-0.176c-0.845,0-1.302,0.625-1.302,1.395     c0,0.854,0.547,1.379,1.277,1.379c0.383,0,0.633-0.1,0.823-0.184L146.379,38.056z"/>
			<path d="M147.16,32.785h0.671v2.301h0.015c0.107-0.19,0.275-0.357,0.48-0.472c0.198-0.114,0.435-0.19,0.686-0.19     c0.496,0,1.287,0.305,1.287,1.576v2.193h-0.671v-2.117c0-0.594-0.22-1.097-0.853-1.097c-0.433,0-0.775,0.305-0.897,0.67     c-0.039,0.092-0.047,0.19-0.047,0.32v2.224h-0.671V32.785z"/>
			<path d="M156.609,38.026c-0.244,0.121-0.73,0.244-1.354,0.244c-1.448,0-2.537-0.915-2.537-2.598c0-1.607,1.089-2.696,2.681-2.696     c0.641,0,1.044,0.137,1.22,0.229l-0.16,0.54c-0.252-0.121-0.609-0.213-1.036-0.213c-1.203,0-2.003,0.769-2.003,2.117     c0,1.257,0.723,2.064,1.972,2.064c0.403,0,0.815-0.084,1.082-0.214L156.609,38.026z"/>
			<path d="M157.704,36.472c0.015,0.906,0.594,1.279,1.265,1.279c0.479,0,0.768-0.084,1.021-0.19l0.114,0.48     c-0.236,0.105-0.641,0.229-1.228,0.229c-1.135,0-1.812-0.747-1.812-1.859c0-1.111,0.654-1.987,1.729-1.987     c1.203,0,1.521,1.059,1.521,1.736c0,0.137-0.015,0.244-0.021,0.313H157.704z M159.669,35.993c0.008-0.428-0.176-1.09-0.929-1.09     c-0.679,0-0.975,0.625-1.028,1.09H159.669z"/>
			<path d="M161.145,35.504c0-0.381-0.008-0.693-0.032-0.998h0.596l0.037,0.61h0.016c0.184-0.351,0.609-0.693,1.22-0.693     c0.51,0,1.302,0.305,1.302,1.569v2.2h-0.67v-2.125c0-0.594-0.222-1.089-0.853-1.089c-0.443,0-0.786,0.312-0.9,0.686     c-0.029,0.084-0.045,0.198-0.045,0.313v2.216h-0.67V35.504z"/>
			<path d="M166.146,33.448v1.059h0.96v0.511h-0.96v1.988c0,0.457,0.129,0.716,0.504,0.716c0.175,0,0.304-0.022,0.388-0.046     l0.03,0.503c-0.129,0.053-0.336,0.092-0.594,0.092c-0.313,0-0.564-0.1-0.724-0.282c-0.19-0.198-0.26-0.525-0.26-0.96v-2.011     h-0.57v-0.511h0.57v-0.883L166.146,33.448z"/>
			<path d="M167.857,35.657c0-0.435-0.008-0.808-0.03-1.15h0.586l0.023,0.725h0.031c0.167-0.496,0.571-0.808,1.021-0.808     c0.074,0,0.129,0.007,0.188,0.022v0.632c-0.068-0.015-0.136-0.022-0.229-0.022c-0.472,0-0.807,0.358-0.898,0.86     c-0.016,0.092-0.03,0.198-0.03,0.313v1.965h-0.663V35.657z"/>
			<path d="M170.645,36.472c0.015,0.906,0.594,1.279,1.265,1.279c0.479,0,0.768-0.084,1.02-0.19l0.114,0.48     c-0.236,0.105-0.64,0.229-1.227,0.229c-1.135,0-1.813-0.747-1.813-1.859c0-1.111,0.655-1.987,1.729-1.987     c1.204,0,1.522,1.059,1.522,1.736c0,0.137-0.015,0.244-0.021,0.313H170.645z M172.609,35.993c0.008-0.428-0.176-1.09-0.929-1.09     c-0.679,0-0.975,0.625-1.028,1.09H172.609z"/>
			<path d="M38.862,49.667c-0.244,0.123-0.731,0.245-1.355,0.245c-1.447,0-2.537-0.914-2.537-2.598c0-1.607,1.089-2.696,2.681-2.696     c0.64,0,1.043,0.137,1.219,0.229l-0.16,0.54c-0.251-0.121-0.609-0.213-1.036-0.213c-1.203,0-2.003,0.77-2.003,2.117     c0,1.258,0.724,2.065,1.973,2.065c0.404,0,0.815-0.085,1.082-0.215L38.862,49.667z"/>
			<path d="M39.956,48.115c0.015,0.905,0.594,1.279,1.265,1.279c0.48,0,0.769-0.085,1.021-0.191l0.114,0.481     c-0.236,0.106-0.64,0.229-1.227,0.229c-1.134,0-1.813-0.747-1.813-1.859c0-1.111,0.655-1.987,1.729-1.987     c1.203,0,1.523,1.059,1.523,1.736c0,0.137-0.015,0.244-0.022,0.313H39.956z M41.921,47.635c0.008-0.428-0.175-1.09-0.929-1.09     c-0.678,0-0.975,0.625-1.028,1.09H41.921z"/>
			<path d="M43.396,47.148c0-0.382-0.007-0.693-0.031-0.999h0.594l0.038,0.61h0.015c0.183-0.351,0.61-0.693,1.219-0.693     c0.511,0,1.302,0.305,1.302,1.569v2.2h-0.67V47.71c0-0.594-0.221-1.089-0.853-1.089c-0.442,0-0.785,0.313-0.899,0.686     c-0.031,0.084-0.046,0.198-0.046,0.313v2.216h-0.67V47.148z"/>
			<path d="M48.398,45.09v1.059h0.96v0.511h-0.96v1.987c0,0.458,0.13,0.716,0.503,0.716c0.175,0,0.305-0.021,0.389-0.046l0.03,0.505     c-0.129,0.054-0.335,0.091-0.594,0.091c-0.312,0-0.564-0.099-0.723-0.282c-0.191-0.199-0.259-0.525-0.259-0.959V46.66h-0.572     v-0.511h0.572v-0.883L48.398,45.09z"/>
			<path d="M50.11,47.299c0-0.434-0.007-0.808-0.031-1.15h0.586l0.023,0.725h0.03c0.167-0.496,0.571-0.808,1.021-0.808     c0.076,0,0.129,0.007,0.19,0.022v0.632c-0.068-0.015-0.137-0.022-0.229-0.022c-0.472,0-0.807,0.358-0.898,0.861     c-0.016,0.091-0.031,0.197-0.031,0.312v1.965H50.11V47.299z"/>
			<path d="M52.896,48.115c0.015,0.905,0.594,1.279,1.264,1.279c0.48,0,0.769-0.085,1.021-0.191l0.114,0.481     c-0.236,0.106-0.64,0.229-1.227,0.229c-1.135,0-1.813-0.747-1.813-1.859c0-1.111,0.655-1.987,1.729-1.987     c1.204,0,1.523,1.059,1.523,1.736c0,0.137-0.015,0.244-0.022,0.313H52.896z M54.861,47.635c0.008-0.428-0.175-1.09-0.929-1.09     c-0.678,0-0.975,0.625-1.028,1.09H54.861z"/>
			<path d="M61.134,44.428v4.456c0,0.327,0.008,0.701,0.031,0.951h-0.602l-0.03-0.641h-0.016c-0.205,0.412-0.655,0.726-1.256,0.726     c-0.891,0-1.577-0.755-1.577-1.874c-0.008-1.227,0.754-1.98,1.653-1.98c0.563,0,0.945,0.266,1.112,0.563h0.016v-2.201H61.134z      M60.464,47.65c0-0.084-0.008-0.198-0.031-0.282c-0.099-0.426-0.465-0.776-0.967-0.776c-0.693,0-1.104,0.609-1.104,1.424     c0,0.746,0.365,1.363,1.089,1.363c0.449,0,0.861-0.298,0.982-0.799c0.022-0.092,0.031-0.184,0.031-0.29V47.65z"/>
			<path d="M62.617,48.115c0.015,0.905,0.594,1.279,1.265,1.279c0.48,0,0.769-0.085,1.021-0.191l0.114,0.481     c-0.236,0.106-0.64,0.229-1.227,0.229c-1.134,0-1.813-0.747-1.813-1.859c0-1.111,0.655-1.987,1.729-1.987     c1.203,0,1.523,1.059,1.523,1.736c0,0.137-0.015,0.244-0.022,0.313H62.617z M64.582,47.635c0.008-0.428-0.175-1.09-0.929-1.09     c-0.678,0-0.975,0.625-1.028,1.09H64.582z"/>
			<path d="M67.671,47.299c0-0.434-0.007-0.808-0.031-1.15h0.586l0.023,0.725h0.03c0.167-0.496,0.571-0.808,1.021-0.808     c0.076,0,0.129,0.007,0.19,0.022v0.632c-0.068-0.015-0.137-0.022-0.229-0.022c-0.472,0-0.808,0.358-0.898,0.861     c-0.015,0.091-0.031,0.197-0.031,0.312v1.965h-0.663V47.299z"/>
			<path d="M70.457,48.115c0.015,0.905,0.594,1.279,1.264,1.279c0.48,0,0.77-0.085,1.021-0.191l0.114,0.481     c-0.236,0.106-0.64,0.229-1.227,0.229c-1.134,0-1.813-0.747-1.813-1.859c0-1.111,0.655-1.987,1.729-1.987     c1.204,0,1.524,1.059,1.524,1.736c0,0.137-0.016,0.244-0.023,0.313H70.457z M72.422,47.635c0.008-0.428-0.175-1.09-0.929-1.09     c-0.678,0-0.975,0.625-1.028,1.09H72.422z"/>
			<path d="M76.525,49.7c-0.176,0.091-0.564,0.213-1.059,0.213c-1.112,0-1.835-0.755-1.835-1.882c0-1.135,0.777-1.958,1.98-1.958     c0.396,0,0.747,0.1,0.929,0.19l-0.153,0.519c-0.159-0.092-0.411-0.176-0.776-0.176c-0.846,0-1.302,0.625-1.302,1.395     c0,0.852,0.548,1.378,1.279,1.378c0.381,0,0.632-0.099,0.823-0.184L76.525,49.7z"/>
			<path d="M77.308,44.428h0.67v2.3h0.016c0.107-0.19,0.274-0.357,0.48-0.472c0.198-0.114,0.435-0.19,0.686-0.19     c0.495,0,1.287,0.305,1.287,1.576v2.193h-0.67v-2.117c0-0.594-0.221-1.097-0.853-1.097c-0.435,0-0.777,0.305-0.899,0.67     c-0.038,0.092-0.046,0.19-0.046,0.32v2.224h-0.67V44.428z"/>
			<path d="M81.905,48.115c0.016,0.905,0.595,1.279,1.265,1.279c0.48,0,0.769-0.085,1.021-0.191l0.114,0.481     c-0.237,0.106-0.641,0.229-1.227,0.229c-1.134,0-1.813-0.747-1.813-1.859c0-1.111,0.655-1.987,1.729-1.987     c1.204,0,1.523,1.059,1.523,1.736c0,0.137-0.015,0.244-0.022,0.313H81.905z M83.871,47.635c0.008-0.428-0.175-1.09-0.929-1.09     c-0.678,0-0.975,0.625-1.028,1.09H83.871z"/>
			<path d="M85.346,47.299c0-0.434-0.007-0.808-0.031-1.15h0.586l0.023,0.725h0.031c0.167-0.496,0.571-0.808,1.021-0.808     c0.076,0,0.129,0.007,0.19,0.022v0.632c-0.068-0.015-0.137-0.022-0.229-0.022c-0.472,0-0.807,0.358-0.898,0.861     c-0.015,0.091-0.031,0.197-0.031,0.312v1.965h-0.663V47.299z"/>
			<path d="M90.387,49.7c-0.175,0.091-0.564,0.213-1.059,0.213c-1.113,0-1.836-0.755-1.836-1.882c0-1.135,0.777-1.958,1.98-1.958     c0.396,0,0.747,0.1,0.929,0.19l-0.152,0.519c-0.16-0.092-0.412-0.176-0.777-0.176c-0.845,0-1.302,0.625-1.302,1.395     c0,0.852,0.548,1.378,1.279,1.378c0.381,0,0.632-0.099,0.823-0.184L90.387,49.7z"/>
			<path d="M91.169,44.428h0.67v2.3h0.016c0.107-0.19,0.274-0.357,0.48-0.472c0.198-0.114,0.435-0.19,0.686-0.19     c0.495,0,1.287,0.305,1.287,1.576v2.193h-0.67v-2.117c0-0.594-0.22-1.097-0.853-1.097c-0.435,0-0.777,0.305-0.899,0.67     c-0.038,0.092-0.046,0.19-0.046,0.32v2.224h-0.67V44.428z"/>
			<path d="M95.767,48.115c0.016,0.905,0.595,1.279,1.265,1.279c0.48,0,0.769-0.085,1.021-0.191l0.114,0.481     c-0.237,0.106-0.641,0.229-1.227,0.229c-1.134,0-1.812-0.747-1.812-1.859c0-1.111,0.655-1.987,1.729-1.987     c1.204,0,1.523,1.059,1.523,1.736c0,0.137-0.015,0.244-0.022,0.313H95.767z M97.732,47.635c0.008-0.428-0.175-1.09-0.929-1.09     c-0.678,0-0.975,0.625-1.028,1.09H97.732z"/>
			<path d="M99.116,49.15c0.198,0.13,0.548,0.269,0.883,0.269c0.487,0,0.716-0.244,0.716-0.55c0-0.319-0.19-0.495-0.686-0.678     c-0.663-0.236-0.975-0.602-0.975-1.043c0-0.595,0.479-1.082,1.271-1.082c0.374,0,0.701,0.106,0.907,0.229l-0.167,0.487     c-0.145-0.092-0.412-0.213-0.754-0.213c-0.396,0-0.617,0.228-0.617,0.502c0,0.306,0.221,0.442,0.701,0.625     c0.641,0.243,0.968,0.563,0.968,1.111c0,0.648-0.502,1.105-1.379,1.105c-0.404,0-0.777-0.099-1.036-0.253L99.116,49.15z"/>
			<path d="M103.835,47.353c0-0.473-0.016-0.854-0.031-1.204h0.602l0.031,0.633h0.015c0.274-0.45,0.709-0.716,1.311-0.716     c0.891,0,1.562,0.754,1.562,1.873c0,1.325-0.808,1.981-1.676,1.981c-0.487,0-0.914-0.213-1.135-0.579h-0.015v2.003h-0.663V47.353     z M104.498,48.335c0,0.1,0.015,0.19,0.031,0.274c0.122,0.466,0.525,0.784,1.005,0.784c0.708,0,1.12-0.579,1.12-1.424     c0-0.739-0.388-1.371-1.097-1.371c-0.457,0-0.883,0.327-1.013,0.83c-0.023,0.084-0.046,0.183-0.046,0.274V48.335z"/>
			<path d="M111.503,47.962c0,1.363-0.945,1.958-1.836,1.958c-0.998,0-1.767-0.73-1.767-1.897c0-1.234,0.807-1.957,1.828-1.957     C110.786,46.066,111.503,46.834,111.503,47.962z M108.578,48c0,0.807,0.464,1.418,1.119,1.418c0.64,0,1.12-0.604,1.12-1.434     c0-0.624-0.312-1.416-1.104-1.416C108.92,46.569,108.578,47.299,108.578,48z"/>
			<path d="M115.43,48.832c0,0.38,0.009,0.714,0.029,1.004h-0.594l-0.038-0.601h-0.015c-0.176,0.298-0.564,0.686-1.218,0.686     c-0.579,0-1.272-0.321-1.272-1.615v-2.156h0.669v2.042c0,0.701,0.214,1.172,0.823,1.172c0.449,0,0.763-0.312,0.884-0.608     c0.038-0.1,0.062-0.222,0.062-0.343v-2.263h0.67V48.832z"/>
			<path d="M116.538,47.299c0-0.434-0.007-0.808-0.029-1.15h0.586l0.022,0.725h0.032c0.167-0.496,0.57-0.808,1.02-0.808     c0.076,0,0.129,0.007,0.19,0.022v0.632c-0.068-0.015-0.137-0.022-0.229-0.022c-0.472,0-0.808,0.358-0.899,0.861     c-0.015,0.091-0.029,0.197-0.029,0.312v1.965h-0.664V47.299z"/>
			<path d="M120.643,44.428h0.669v5.407h-0.669V44.428z"/>
			<path d="M122.812,48.115c0.015,0.905,0.594,1.279,1.265,1.279c0.479,0,0.769-0.085,1.021-0.191l0.114,0.481     c-0.236,0.106-0.641,0.229-1.228,0.229c-1.135,0-1.812-0.747-1.812-1.859c0-1.111,0.653-1.987,1.728-1.987     c1.204,0,1.523,1.059,1.523,1.736c0,0.137-0.016,0.244-0.022,0.313H122.812z M124.776,47.635c0.008-0.428-0.176-1.09-0.929-1.09     c-0.679,0-0.976,0.625-1.028,1.09H124.776z"/>
			<path d="M131.048,44.428v4.456c0,0.327,0.008,0.701,0.032,0.951h-0.604l-0.028-0.641h-0.017     c-0.204,0.412-0.654,0.726-1.257,0.726c-0.891,0-1.576-0.755-1.576-1.874c-0.008-1.227,0.753-1.98,1.653-1.98     c0.563,0,0.943,0.266,1.11,0.563h0.017v-2.201H131.048z M130.379,47.65c0-0.084-0.008-0.198-0.03-0.282     c-0.101-0.426-0.466-0.776-0.968-0.776c-0.693,0-1.104,0.609-1.104,1.424c0,0.746,0.364,1.363,1.089,1.363     c0.449,0,0.861-0.298,0.982-0.799c0.022-0.092,0.03-0.184,0.03-0.29V47.65z"/>
			<path d="M132.532,48.115c0.015,0.905,0.594,1.279,1.265,1.279c0.479,0,0.769-0.085,1.021-0.191l0.114,0.481     c-0.236,0.106-0.64,0.229-1.227,0.229c-1.135,0-1.813-0.747-1.813-1.859c0-1.111,0.654-1.987,1.729-1.987     c1.203,0,1.523,1.059,1.523,1.736c0,0.137-0.016,0.244-0.022,0.313H132.532z M134.496,47.635c0.008-0.428-0.175-1.09-0.928-1.09     c-0.679,0-0.976,0.625-1.028,1.09H134.496z M134.657,44.557l-0.929,1.09h-0.48l0.671-1.09H134.657z"/>
			<path d="M136.231,46.149l0.724,2.072c0.121,0.336,0.221,0.64,0.296,0.944h0.024c0.083-0.305,0.189-0.608,0.312-0.944l0.717-2.072     h0.701l-1.448,3.687h-0.64l-1.401-3.687H136.231z"/>
			<path d="M139.931,48.115c0.015,0.905,0.594,1.279,1.265,1.279c0.479,0,0.769-0.085,1.021-0.191l0.114,0.481     c-0.237,0.106-0.641,0.229-1.228,0.229c-1.135,0-1.812-0.747-1.812-1.859c0-1.111,0.653-1.987,1.728-1.987     c1.203,0,1.523,1.059,1.523,1.736c0,0.137-0.016,0.244-0.022,0.313H139.931z M141.895,47.635c0.009-0.428-0.175-1.09-0.928-1.09     c-0.679,0-0.976,0.625-1.028,1.09H141.895z"/>
			<path d="M143.371,44.428h0.67v5.407h-0.67V44.428z"/>
			<path d="M148.505,47.962c0,1.363-0.946,1.958-1.836,1.958c-0.999,0-1.768-0.73-1.768-1.897c0-1.234,0.808-1.957,1.827-1.957     C147.787,46.066,148.505,46.834,148.505,47.962z M145.58,48c0,0.807,0.463,1.418,1.118,1.418c0.64,0,1.119-0.604,1.119-1.434     c0-0.624-0.312-1.416-1.104-1.416S145.58,47.299,145.58,48z"/>
			<path d="M149.347,47.353c0-0.473-0.016-0.854-0.032-1.204h0.604l0.029,0.633h0.016c0.273-0.45,0.709-0.716,1.31-0.716     c0.893,0,1.563,0.754,1.563,1.873c0,1.325-0.808,1.981-1.677,1.981c-0.486,0-0.914-0.213-1.134-0.579h-0.017v2.003h-0.661V47.353     z M150.008,48.335c0,0.1,0.017,0.19,0.032,0.274c0.121,0.466,0.524,0.784,1.004,0.784c0.71,0,1.121-0.579,1.121-1.424     c0-0.739-0.389-1.371-1.097-1.371c-0.457,0-0.885,0.327-1.014,0.83c-0.022,0.084-0.047,0.183-0.047,0.274V48.335z"/>
			<path d="M153.677,47.353c0-0.473-0.016-0.854-0.03-1.204h0.602l0.03,0.633h0.015c0.275-0.45,0.71-0.716,1.312-0.716     c0.891,0,1.561,0.754,1.561,1.873c0,1.325-0.808,1.981-1.675,1.981c-0.487,0-0.914-0.213-1.136-0.579h-0.015v2.003h-0.663V47.353     z M154.34,48.335c0,0.1,0.015,0.19,0.03,0.274c0.122,0.466,0.526,0.784,1.006,0.784c0.708,0,1.119-0.579,1.119-1.424     c0-0.739-0.388-1.371-1.097-1.371c-0.457,0-0.884,0.327-1.013,0.83c-0.023,0.084-0.046,0.183-0.046,0.274V48.335z"/>
			<path d="M158.382,48.115c0.015,0.905,0.594,1.279,1.265,1.279c0.479,0,0.768-0.085,1.02-0.191l0.114,0.481     c-0.236,0.106-0.64,0.229-1.227,0.229c-1.135,0-1.813-0.747-1.813-1.859c0-1.111,0.655-1.987,1.729-1.987     c1.204,0,1.522,1.059,1.522,1.736c0,0.137-0.015,0.244-0.021,0.313H158.382z M160.347,47.635c0.008-0.428-0.176-1.09-0.929-1.09     c-0.679,0-0.976,0.625-1.028,1.09H160.347z"/>
			<path d="M161.822,47.148c0-0.382-0.008-0.693-0.032-0.999h0.587l0.031,0.595h0.022c0.206-0.351,0.548-0.678,1.158-0.678     c0.502,0,0.883,0.305,1.044,0.738h0.015c0.114-0.205,0.259-0.365,0.41-0.479c0.222-0.167,0.465-0.259,0.815-0.259     c0.489,0,1.212,0.32,1.212,1.599v2.171h-0.655V47.75c0-0.709-0.259-1.136-0.8-1.136c-0.381,0-0.679,0.282-0.793,0.609     c-0.029,0.092-0.053,0.213-0.053,0.336v2.276h-0.655v-2.208c0-0.587-0.259-1.014-0.769-1.014c-0.42,0-0.724,0.335-0.83,0.671     c-0.039,0.099-0.054,0.213-0.054,0.327v2.224h-0.654V47.148z"/>
			<path d="M168.543,48.115c0.016,0.905,0.596,1.279,1.265,1.279c0.48,0,0.77-0.085,1.021-0.191l0.114,0.481     c-0.236,0.106-0.641,0.229-1.227,0.229c-1.134,0-1.813-0.747-1.813-1.859c0-1.111,0.655-1.987,1.729-1.987     c1.203,0,1.523,1.059,1.523,1.736c0,0.137-0.015,0.244-0.023,0.313H168.543z M170.509,47.635c0.008-0.428-0.175-1.09-0.93-1.09     c-0.678,0-0.975,0.625-1.028,1.09H170.509z"/>
			<path d="M171.983,47.148c0-0.382-0.008-0.693-0.03-0.999h0.594l0.038,0.61h0.015c0.184-0.351,0.611-0.693,1.22-0.693     c0.51,0,1.302,0.305,1.302,1.569v2.2h-0.67V47.71c0-0.594-0.221-1.089-0.853-1.089c-0.442,0-0.785,0.313-0.899,0.686     c-0.03,0.084-0.046,0.198-0.046,0.313v2.216h-0.67V47.148z"/>
			<path d="M176.985,45.09v1.059h0.959v0.511h-0.959v1.987c0,0.458,0.129,0.716,0.503,0.716c0.175,0,0.305-0.021,0.388-0.046     l0.031,0.505c-0.13,0.054-0.336,0.091-0.595,0.091c-0.313,0-0.563-0.099-0.723-0.282c-0.191-0.199-0.261-0.525-0.261-0.959V46.66     h-0.57v-0.511h0.57v-0.883L176.985,45.09z"/>
			<path d="M181.057,45.113c0.008,0.229-0.16,0.412-0.426,0.412c-0.236,0-0.404-0.184-0.404-0.412c0-0.235,0.176-0.418,0.42-0.418     C180.896,44.695,181.057,44.877,181.057,45.113z M180.311,49.835v-3.687h0.671v3.687H180.311z"/>
			<path d="M182.092,47.148c0-0.382-0.008-0.693-0.03-0.999h0.594l0.038,0.61h0.015c0.184-0.351,0.611-0.693,1.22-0.693     c0.51,0,1.302,0.305,1.302,1.569v2.2h-0.67V47.71c0-0.594-0.221-1.089-0.853-1.089c-0.442,0-0.785,0.313-0.899,0.686     c-0.03,0.084-0.047,0.198-0.047,0.313v2.216h-0.669V47.148z"/>
			<path d="M187.094,45.09v1.059h0.959v0.511h-0.959v1.987c0,0.458,0.129,0.716,0.502,0.716c0.176,0,0.306-0.021,0.389-0.046     l0.031,0.505c-0.13,0.054-0.336,0.091-0.595,0.091c-0.313,0-0.563-0.099-0.723-0.282c-0.191-0.199-0.261-0.525-0.261-0.959V46.66     h-0.571v-0.511h0.571v-0.883L187.094,45.09z"/>
			<path d="M189.133,48.115c0.015,0.905,0.594,1.279,1.265,1.279c0.479,0,0.77-0.085,1.021-0.191l0.114,0.481     c-0.236,0.106-0.641,0.229-1.228,0.229c-1.134,0-1.812-0.747-1.812-1.859c0-1.111,0.653-1.987,1.728-1.987     c1.204,0,1.524,1.059,1.524,1.736c0,0.137-0.017,0.244-0.023,0.313H189.133z M191.098,47.635c0.008-0.428-0.176-1.09-0.929-1.09     c-0.679,0-0.975,0.625-1.028,1.09H191.098z"/>
			<path d="M192.573,47.299c0-0.434-0.007-0.808-0.03-1.15h0.587l0.022,0.725h0.03c0.168-0.496,0.571-0.808,1.021-0.808     c0.077,0,0.13,0.007,0.191,0.022v0.632c-0.069-0.015-0.139-0.022-0.229-0.022c-0.473,0-0.808,0.358-0.899,0.861     c-0.015,0.091-0.03,0.197-0.03,0.312v1.965h-0.663V47.299z"/>
			<path d="M195.093,47.148c0-0.382-0.008-0.693-0.03-0.999h0.594l0.038,0.61h0.015c0.184-0.351,0.611-0.693,1.22-0.693     c0.51,0,1.303,0.305,1.303,1.569v2.2h-0.671V47.71c0-0.594-0.22-1.089-0.853-1.089c-0.442,0-0.785,0.313-0.899,0.686     c-0.03,0.084-0.046,0.198-0.046,0.313v2.216h-0.67V47.148z"/>
			<path d="M201.358,49.835l-0.053-0.465h-0.022c-0.206,0.289-0.603,0.55-1.128,0.55c-0.747,0-1.127-0.526-1.127-1.06     c0-0.891,0.792-1.379,2.216-1.371v-0.076c0-0.305-0.084-0.854-0.837-0.854c-0.343,0-0.701,0.107-0.96,0.274l-0.153-0.441     c0.306-0.198,0.747-0.327,1.212-0.327c1.128,0,1.401,0.769,1.401,1.508v1.38c0,0.318,0.016,0.632,0.061,0.882H201.358z      M201.26,47.955c-0.731-0.016-1.562,0.114-1.562,0.831c0,0.434,0.289,0.638,0.632,0.638c0.481,0,0.785-0.303,0.892-0.616     c0.022-0.068,0.038-0.144,0.038-0.213V47.955z"/>
			<path d="M203.763,45.09v1.059h0.96v0.511h-0.96v1.987c0,0.458,0.13,0.716,0.504,0.716c0.175,0,0.304-0.021,0.388-0.046     l0.03,0.505c-0.129,0.054-0.335,0.091-0.594,0.091c-0.313,0-0.563-0.099-0.724-0.282c-0.19-0.199-0.26-0.525-0.26-0.959V46.66     h-0.57v-0.511h0.57v-0.883L203.763,45.09z"/>
			<path d="M206.223,45.113c0.007,0.229-0.16,0.412-0.428,0.412c-0.235,0-0.402-0.184-0.402-0.412c0-0.235,0.174-0.418,0.418-0.418     C206.063,44.695,206.223,44.877,206.223,45.113z M205.477,49.835v-3.687h0.669v3.687H205.477z"/>
			<path d="M210.593,47.962c0,1.363-0.944,1.958-1.836,1.958c-0.997,0-1.767-0.73-1.767-1.897c0-1.234,0.808-1.957,1.828-1.957     C209.877,46.066,210.593,46.834,210.593,47.962z M207.668,48c0,0.807,0.465,1.418,1.12,1.418c0.64,0,1.119-0.604,1.119-1.434     c0-0.624-0.312-1.416-1.104-1.416C208.011,46.569,207.668,47.299,207.668,48z"/>
			<path d="M211.437,47.148c0-0.382-0.008-0.693-0.031-0.999h0.594l0.039,0.61h0.015c0.184-0.351,0.609-0.693,1.219-0.693     c0.511,0,1.302,0.305,1.302,1.569v2.2h-0.669V47.71c0-0.594-0.222-1.089-0.854-1.089c-0.44,0-0.783,0.313-0.897,0.686     c-0.03,0.084-0.047,0.198-0.047,0.313v2.216h-0.669V47.148z"/>
			<path d="M217.7,49.835l-0.053-0.465h-0.022c-0.206,0.289-0.602,0.55-1.128,0.55c-0.746,0-1.126-0.526-1.126-1.06     c0-0.891,0.791-1.379,2.215-1.371v-0.076c0-0.305-0.083-0.854-0.837-0.854c-0.343,0-0.701,0.107-0.96,0.274l-0.152-0.441     c0.305-0.198,0.746-0.327,1.211-0.327c1.128,0,1.401,0.769,1.401,1.508v1.38c0,0.318,0.016,0.632,0.062,0.882H217.7z      M217.603,47.955c-0.732-0.016-1.563,0.114-1.563,0.831c0,0.434,0.29,0.638,0.633,0.638c0.48,0,0.784-0.303,0.891-0.616     c0.022-0.068,0.039-0.144,0.039-0.213V47.955z"/>
			<path d="M219.33,44.428H220v5.407h-0.67V44.428z"/>
		</g>
	</g>
	<g>
		<g>
			<g>
				<polygon fill="#0066B3" points="7.688,0.659 7.833,0.657 11.636,7.024 11.636,11.76 7.697,7.844     "/>
				<polygon fill="#0066B3" points="7.246,8.38 0.03,8.38 0.035,8.533 6.372,12.258 11.132,12.258     "/>
				<polygon fill="#0066B3" points="7.764,0.659 7.88,1.398 0.714,1.398 0.721,8.555 0,8.533 0,0.659     "/>
			</g>
			<g>
				<polygon fill="#0066B3" points="16.323,0.659 16.178,0.657 12.378,7.024 12.378,11.76 16.318,7.844     "/>
				<polygon fill="#0066B3" points="16.766,8.38 23.98,8.38 23.978,8.533 17.642,12.258 12.881,12.258     "/>
				<polygon fill="#0066B3" points="16.246,0.659 16.133,1.398 23.29,1.401 23.291,8.555 24.012,8.533 24.012,0.659     "/>
			</g>
		</g>
		<g>
			<g>
				<polygon fill="#0066B3" points="7.688,24.598 7.833,24.604 11.636,18.236 11.636,13.498 7.697,17.417     "/>
				<polygon fill="#0066B3" points="7.246,16.876 0.03,16.876 0.035,16.723 6.372,12.999 11.132,12.999     "/>
				<polygon fill="#0066B3" points="7.764,24.604 7.88,23.861 0.74,23.861 0.74,16.721 0,16.723 0,24.604     "/>
			</g>
			<g>
				<polygon fill="#0066B3" points="16.323,24.598 16.178,24.604 12.378,18.236 12.378,13.498 16.318,17.417     "/>
				<polygon fill="#0066B3" points="16.766,16.876 23.98,16.876 23.978,16.723 17.642,12.999 12.881,12.999     "/>
				<polygon fill="#0066B3" points="16.246,24.604 16.133,23.861 23.29,23.856 23.291,16.704 24.012,16.723 24.012,24.604     "/>
			</g>
		</g>
	</g>
	<g>
		<path fill="#0066B3" d="M38.81,5.012v15.406h-3.495V5.012H38.81z"/>
		<path fill="#0066B3" d="M41.368,5.22c1.281-0.208,2.947-0.324,4.71-0.324c2.925,0,4.821,0.528,6.307,1.645    c1.601,1.19,2.607,3.09,2.607,5.811c0,2.945-1.073,4.981-2.563,6.239c-1.622,1.345-4.089,1.99-7.106,1.99    c-1.808,0-3.087-0.118-3.956-0.23V5.22z M44.869,17.791c0.293,0.068,0.776,0.068,1.21,0.068c3.152,0.021,5.21-1.717,5.21-5.396    c0.023-3.204-1.85-4.891-4.844-4.891c-0.779,0-1.283,0.067-1.576,0.138V17.791z"/>
		<path fill="#0066B3" d="M56.82,5.22c1.119-0.185,2.788-0.324,4.639-0.324c2.287,0,3.885,0.347,4.982,1.212    c0.915,0.731,1.418,1.803,1.418,3.224c0,1.967-1.394,3.315-2.72,3.794v0.068c1.074,0.438,1.671,1.465,2.058,2.879    c0.48,1.74,0.961,3.751,1.257,4.346h-3.565c-0.252-0.459-0.616-1.691-1.075-3.59c-0.412-1.921-1.075-2.446-2.492-2.469h-1.051    v6.059H56.82V5.22z M60.271,11.846h1.369c1.738,0,2.768-0.868,2.768-2.216c0-1.418-0.961-2.128-2.56-2.149    c-0.846,0-1.327,0.068-1.577,0.114V11.846z"/>
		<path fill="#0066B3" d="M81.138,19.984c-0.64,0.321-2.081,0.686-3.956,0.686c-5.325,0-8.071-3.337-8.071-7.725    c0-5.26,3.752-8.185,8.416-8.185c1.807,0,3.176,0.364,3.796,0.684L80.61,8.212c-0.707-0.302-1.691-0.573-2.923-0.573    c-2.768,0-4.917,1.667-4.917,5.098c0,3.087,1.83,5.03,4.94,5.03c1.053,0,2.217-0.23,2.901-0.504L81.138,19.984z"/>
		<path fill="#0066B3" d="M112.747,19.984c-0.638,0.321-2.08,0.686-3.958,0.686c-5.324,0-8.063-3.337-8.063-7.725    c0-5.26,3.746-8.185,8.408-8.185c1.804,0,3.18,0.364,3.796,0.684l-0.71,2.769c-0.709-0.302-1.689-0.573-2.925-0.573    c-2.767,0-4.917,1.667-4.917,5.098c0,3.087,1.829,5.03,4.938,5.03c1.052,0,2.218-0.23,2.903-0.504L112.747,19.984z"/>
		<path fill="#0066B3" d="M115.031,5.22c1.119-0.185,2.787-0.324,4.642-0.324c2.284,0,3.884,0.347,4.983,1.212    c0.911,0.731,1.413,1.803,1.413,3.224c0,1.967-1.392,3.315-2.717,3.794v0.068c1.07,0.438,1.671,1.465,2.056,2.879    c0.479,1.74,0.962,3.751,1.259,4.346h-3.564c-0.255-0.459-0.622-1.691-1.079-3.59c-0.409-1.921-1.073-2.446-2.486-2.469h-1.058    v6.059h-3.448V5.22z M118.479,11.846h1.374c1.74,0,2.763-0.868,2.763-2.216c0-1.418-0.956-2.128-2.556-2.149    c-0.845,0-1.325,0.068-1.581,0.114V11.846z"/>
		<path fill="#0066B3" d="M128.586,5.22c1.28-0.208,2.948-0.324,4.707-0.324c2.925,0,4.821,0.528,6.31,1.645    c1.602,1.19,2.604,3.09,2.604,5.811c0,2.945-1.073,4.981-2.556,6.239c-1.626,1.345-4.094,1.99-7.112,1.99    c-1.804,0-3.087-0.118-3.952-0.23V5.22z M132.082,17.791c0.297,0.068,0.775,0.068,1.211,0.068c3.153,0.021,5.21-1.717,5.21-5.396    c0.026-3.204-1.85-4.891-4.844-4.891c-0.775,0-1.28,0.067-1.577,0.138V17.791z"/>
		<path fill="#0066B3" d="M147.532,5.012v15.406h-3.496V5.012H147.532z"/>
	</g>
	<line fill="#0066B3" stroke="#0066B3" stroke-width="0.5194" x1="91.691" y1="0.69" x2="91.691" y2="24.604"/>
	<rect x="0.733" y="1.362" fill="none" width="6.988" height="6.986"/>
	<rect x="16.293" y="1.455" fill="none" width="6.985" height="6.985"/>
	<rect x="0.756" y="16.886" fill="none" width="6.987" height="6.986"/>
	<rect x="16.293" y="16.938" fill="none" width="6.985" height="6.987"/>
</g>
</svg>