<?xml version="1.0" encoding="UTF-8" standalone="no"?>
<!-- Generator: Adobe Illustrator 18.0.0, SVG Export Plug-In . SVG Version: 6.00 Build 0)  -->

<svg
   xmlns:dc="http://purl.org/dc/elements/1.1/"
   xmlns:cc="http://creativecommons.org/ns#"
   xmlns:rdf="http://www.w3.org/1999/02/22-rdf-syntax-ns#"
   xmlns:svg="http://www.w3.org/2000/svg"
   xmlns="http://www.w3.org/2000/svg"
   xmlns:sodipodi="http://sodipodi.sourceforge.net/DTD/sodipodi-0.dtd"
   xmlns:inkscape="http://www.inkscape.org/namespaces/inkscape"
   version="1.1"
   id="Layer_1"
   x="0px"
   y="0px"
   viewBox="81.9 6.1 235.2 100"
   enable-background="new 81.9 6.1 235.2 100"
   xml:space="preserve"
   inkscape:version="0.91 r13725"
   sodipodi:docname="card-mobile.svg"><metadata
     id="metadata181"><rdf:RDF><cc:Work
         rdf:about=""><dc:format>image/svg+xml</dc:format><dc:type
           rdf:resource="http://purl.org/dc/dcmitype/StillImage" /><dc:title /></cc:Work></rdf:RDF></metadata><defs
     id="defs179" /><sodipodi:namedview
     pagecolor="#ffffff"
     bordercolor="#666666"
     borderopacity="1"
     objecttolerance="10"
     gridtolerance="10"
     guidetolerance="10"
     inkscape:pageopacity="0"
     inkscape:pageshadow="2"
     inkscape:window-width="1920"
     inkscape:window-height="1016"
     id="namedview177"
     showgrid="false"
     inkscape:snap-page="true"
     showguides="true"
     inkscape:guide-bbox="true"
     inkscape:zoom="2.8284272"
     inkscape:cx="197.59887"
     inkscape:cy="92.479432"
     inkscape:window-x="0"
     inkscape:window-y="27"
     inkscape:window-maximized="1"
     inkscape:current-layer="Layer_1"><sodipodi:guide
       position="0,45.949147"
       orientation="1,0"
       id="guide4367" /><sodipodi:guide
       position="7.3193332,125.24192"
       orientation="1,0"
       id="guide4375" /><sodipodi:guide
       position="74.599764,88.034792"
       orientation="0,1"
       id="guide4168" /><sodipodi:guide
       position="73.539104,12.374368"
       orientation="0,1"
       id="guide4170" /><sodipodi:guide
       position="97.934288,58.336308"
       orientation="1,0"
       id="guide4174" /></sodipodi:namedview><rect
     x="142.3"
     y="32.2"
     fill="none"
     width="174.7"
     height="73.9"
     id="rect3"
     inkscape:export-filename="/home/flow/Documentos/curro/medialab-prado/tpc/open-cities/text4371.png"
     inkscape:export-xdpi="300"
     inkscape:export-ydpi="300" /><rect
     x="88.900002"
     y="53.799999"
     width="46"
     height="38.900002"
     id="rect105"
     style="fill:none"
     inkscape:export-filename="/home/flow/Documentos/curro/medialab-prado/tpc/open-cities/text4371.png"
     inkscape:export-xdpi="300"
     inkscape:export-ydpi="300" /><rect
     x="81.9"
     y="6.3"
     fill="none"
     width="235.2"
     height="20.2"
     id="rect115"
     inkscape:export-filename="/home/flow/Documentos/curro/medialab-prado/tpc/open-cities/text4371.png"
     inkscape:export-xdpi="300"
     inkscape:export-ydpi="300" /><g
     inkscape:groupmode="layer"
     id="layer1"
     inkscape:label="Layer 1"
     style="display:inline" /><g
     inkscape:groupmode="layer"
     id="layer2"
     inkscape:label="Layer 2"
     style="display:inline" /><path
     style="display:inline;fill:#00a5ff;fill-opacity:1"
     d="m 131.16671,18.535517 c -4.71177,0.09315 -7.79855,1.000731 -7.79855,1.000731 l 0.005,29.528028 c 0.27782,-1.750728 2.4596,-3.859609 2.4596,-3.859609 l 22.88377,-22.781394 c -6.50166,-3.259671 -12.83814,-3.980965 -17.54994,-3.887756 z m -10.99783,1.865815 c -13.80528,4.586485 -19.96859,15.883754 -19.96859,15.883754 l 20.95398,20.80297 c -1.03917,-1.436223 -0.98537,-4.468744 -0.98539,-4.468744 l 0,-32.21798 z m 31.422,3.672764 -20.80041,20.956526 c 1.43229,-1.039165 4.4662,-0.987932 4.4662,-0.98792 l 32.21797,0 C 162.88817,30.237383 151.59088,24.074096 151.59088,24.074096 Z M 98.549475,39.159311 c -6.518049,13.002027 -2.887036,25.348498 -2.887036,25.348498 l 29.522911,-0.104882 c -1.74678,-0.281737 -3.85449,-2.46471 -3.85449,-2.464722 L 98.549475,39.15937 Z m 69.790245,8.080096 -29.52545,0.110097 c 1.74547,0.279117 3.85449,2.462174 3.85449,2.462174 l 22.78138,22.781383 c 6.51935,-13.004635 2.88958,-25.352291 2.88958,-25.353606 z m -25.49437,7.422313 c 1.03916,1.437539 0.98793,4.468756 0.98793,4.468756 l 0,32.217968 C 157.63597,86.76196 163.79925,75.464691 163.80187,75.464691 L 142.84535,54.66172 Z m -2.31628,8.02634 c -0.27913,1.748109 -2.46216,3.854489 -2.46216,3.854489 l -22.78395,22.783966 c 13.00201,6.519351 25.351,2.889573 25.35361,2.889573 L 140.52909,62.68806 Z m -7.31993,4.033654 c -1.43098,1.039165 -4.46619,0.985372 -4.46619,0.985372 l -32.217976,0 c 4.586476,13.807926 15.883756,19.971142 15.883756,19.971142 l 20.80041,-20.956514 z"
     id="path3-3"
     inkscape:connector-curvature="0" /><g
     style="display:inline;fill:#00a5ff;fill-opacity:1"
     transform="matrix(1.0359684,0,0,1.0359684,113.28036,-3.9479847)"
     id="g5"><g
       id="g7"
       style="fill:#00a5ff;fill-opacity:1"><path
         style="fill:#00a5ff;fill-opacity:1"
         inkscape:connector-curvature="0"
         d="m 75.355,34.036 0,-8.54 -3.107,8.372 -1.604,0 -3.09,-8.473 0,8.641 -2.111,0 0,-11.965 2.938,0 3.141,8.522 3.158,-8.522 2.787,0 0,11.965 -2.112,0 z"
         id="path9" /><path
         style="fill:#00a5ff;fill-opacity:1"
         inkscape:connector-curvature="0"
         d="m 86.787,34.171 c -0.912,0 -1.418,-0.573 -1.484,-1.232 -0.406,0.71 -1.42,1.317 -2.67,1.317 -2.094,0 -3.176,-1.317 -3.176,-2.751 0,-1.671 1.303,-2.632 2.973,-2.751 l 2.586,-0.186 0,-0.541 c 0,-0.825 -0.287,-1.383 -1.488,-1.383 -0.979,0 -1.553,0.438 -1.604,1.249 l -2.043,0 c 0.119,-1.975 1.689,-2.852 3.646,-2.852 1.504,0 2.787,0.472 3.295,1.789 0.219,0.557 0.252,1.181 0.252,1.772 l 0,3.257 c 0,0.405 0.135,0.556 0.49,0.556 0.137,0 0.27,-0.033 0.27,-0.033 l 0,1.553 c -0.354,0.152 -0.539,0.236 -1.047,0.236 z m -1.771,-4.033 -2.229,0.169 c -0.644,0.051 -1.267,0.438 -1.267,1.147 0,0.676 0.59,1.097 1.248,1.097 1.318,0 2.248,-0.708 2.248,-2.008 l 0,-0.405 z"
         id="path11" /><path
         style="fill:#00a5ff;fill-opacity:1"
         inkscape:connector-curvature="0"
         d="M 95.365,34.036 95.23,33.075 c -0.523,0.811 -1.504,1.163 -2.465,1.163 -0.88,0 -1.605,-0.304 -2.146,-0.741 -1.047,-0.861 -1.553,-2.178 -1.553,-3.832 0,-1.722 0.522,-3.055 1.569,-3.915 0.541,-0.439 1.25,-0.708 2.146,-0.708 1.115,0 1.926,0.371 2.297,0.827 l 0,-4.017 2.111,0 0,12.185 -1.824,-10e-4 0,0 z m -2.177,-7.223 c -0.658,0 -1.114,0.304 -1.418,0.691 -0.438,0.574 -0.559,1.368 -0.559,2.126 0,0.76 0.119,1.57 0.559,2.145 0.304,0.388 0.76,0.691 1.418,0.691 1.654,0 1.992,-1.57 1.992,-2.836 0,-1.264 -0.338,-2.817 -1.992,-2.817 z"
         id="path13" /><path
         style="fill:#00a5ff;fill-opacity:1"
         inkscape:connector-curvature="0"
         d="m 104.213,27.134 c -1.486,0 -2.262,1.062 -2.262,2.481 l 0,4.421 -2.129,0 0,-8.776 1.789,0 0.186,1.316 c 0.406,-1.012 1.453,-1.434 2.484,-1.434 0.221,0 0.439,0.017 0.658,0.051 l 0,2.024 c -0.236,-0.049 -0.49,-0.083 -0.726,-0.083 z"
         id="path15" /><path
         style="fill:#00a5ff;fill-opacity:1"
         inkscape:connector-curvature="0"
         d="m 106.459,24.045 0,-2.177 2.264,0 0,2.177 -2.264,0 z m 0.066,9.991 0,-8.776 2.146,0 0,8.776 -2.146,0 z"
         id="path17" /><path
         style="fill:#00a5ff;fill-opacity:1"
         inkscape:connector-curvature="0"
         d="m 117.012,34.036 -0.133,-0.961 c -0.525,0.811 -1.504,1.163 -2.465,1.163 -0.879,0 -1.607,-0.304 -2.146,-0.741 -1.047,-0.861 -1.553,-2.178 -1.553,-3.832 0,-1.722 0.521,-3.055 1.57,-3.915 0.539,-0.439 1.25,-0.708 2.145,-0.708 1.115,0 1.924,0.371 2.295,0.827 l 0,-4.017 2.111,0 0,12.185 -1.824,-10e-4 0,0 z m -2.178,-7.223 c -0.658,0 -1.115,0.304 -1.418,0.691 -0.439,0.574 -0.559,1.368 -0.559,2.126 0,0.76 0.119,1.57 0.559,2.145 0.303,0.388 0.76,0.691 1.418,0.691 1.656,0 1.992,-1.57 1.992,-2.836 0,-1.264 -0.336,-2.817 -1.992,-2.817 z"
         id="path19" /></g><g
       id="g21"
       style="fill:#00a5ff;fill-opacity:1"><path
         style="fill:#00a5ff;fill-opacity:1"
         inkscape:connector-curvature="0"
         d="m 73.16,51.182 c -0.912,0.91 -2.162,1.351 -3.445,1.351 -1.283,0 -2.533,-0.439 -3.445,-1.351 -1.3,-1.299 -1.52,-2.885 -1.52,-4.844 0,-1.958 0.22,-3.562 1.52,-4.86 0.912,-0.911 2.162,-1.351 3.445,-1.351 1.283,0 2.533,0.439 3.445,1.351 1.301,1.299 1.52,2.903 1.52,4.86 0,1.959 -0.219,3.545 -1.52,4.844 z m -1.553,-8.286 c -0.473,-0.507 -1.199,-0.794 -1.892,-0.794 -0.692,0 -1.418,0.287 -1.891,0.794 -0.828,0.859 -0.861,2.344 -0.861,3.442 0,1.098 0.033,2.566 0.861,3.428 0.473,0.504 1.199,0.791 1.891,0.791 0.693,0 1.418,-0.287 1.892,-0.791 0.828,-0.861 0.861,-2.33 0.861,-3.428 0,-1.098 -0.033,-2.583 -0.861,-3.442 z"
         id="path23" /><path
         style="fill:#00a5ff;fill-opacity:1"
         inkscape:connector-curvature="0"
         d="m 83.258,51.822 c -0.539,0.439 -1.25,0.709 -2.145,0.709 -1.047,0 -1.891,-0.371 -2.295,-0.859 l 0,3.998 -2.111,0 0,-12.134 1.822,0 0.135,0.961 c 0.523,-0.809 1.504,-1.165 2.467,-1.165 0.877,0 1.588,0.306 2.127,0.744 1.049,0.86 1.572,2.177 1.572,3.831 0,1.722 -0.523,3.056 -1.572,3.915 z m -1.131,-6.024 c -0.305,-0.389 -0.76,-0.693 -1.418,-0.693 -1.654,0 -1.994,1.571 -1.994,2.836 0,1.265 0.34,2.817 1.994,2.817 0.658,0 1.113,-0.303 1.418,-0.69 0.439,-0.574 0.557,-1.367 0.557,-2.127 0,-0.76 -0.118,-1.57 -0.557,-2.143 z"
         id="path25" /><path
         style="fill:#00a5ff;fill-opacity:1"
         inkscape:connector-curvature="0"
         d="m 94.268,48.582 -5.877,0 c -0.016,0.676 0.221,1.316 0.644,1.723 0.303,0.285 0.727,0.539 1.301,0.539 0.606,0 0.979,-0.117 1.283,-0.422 0.187,-0.186 0.338,-0.422 0.422,-0.742 l 2.026,0 c -0.053,0.523 -0.405,1.215 -0.743,1.619 -0.742,0.877 -1.841,1.232 -2.955,1.232 -1.199,0 -2.078,-0.422 -2.771,-1.078 -0.879,-0.846 -1.352,-2.078 -1.352,-3.512 0,-1.4 0.422,-2.649 1.268,-3.51 0.658,-0.676 1.604,-1.115 2.803,-1.115 1.302,0 2.482,0.523 3.209,1.621 0.642,0.963 0.793,1.958 0.761,3.055 -0.002,0 -0.019,0.404 -0.019,0.59 z m -2.635,-3.071 c -0.285,-0.303 -0.725,-0.506 -1.332,-0.506 -0.643,0 -1.166,0.27 -1.471,0.675 -0.305,0.389 -0.439,0.793 -0.455,1.367 l 3.799,0 c -0.018,-0.658 -0.203,-1.165 -0.541,-1.536 z"
         id="path27" /><path
         style="fill:#00a5ff;fill-opacity:1"
         inkscape:connector-curvature="0"
         d="m 101.631,52.312 0,-5.382 c 0,-1.029 -0.34,-1.655 -1.453,-1.655 -0.742,0 -1.232,0.473 -1.521,1.114 -0.304,0.693 -0.285,1.604 -0.285,2.346 l 0,3.578 -2.112,0 0,-8.775 1.773,0 0.152,1.131 c 0.522,-0.929 1.569,-1.351 2.582,-1.351 1.875,0 2.973,1.316 2.973,3.139 l 0,5.856 -2.109,0 0,-0.001 z"
         id="path29" /><path
         style="fill:#00a5ff;fill-opacity:1"
         inkscape:connector-curvature="0"
         d="m 117.434,51.113 c -0.895,0.912 -2.143,1.418 -3.426,1.418 -1.283,0 -2.484,-0.422 -3.395,-1.332 -1.301,-1.301 -1.486,-2.902 -1.486,-4.861 0,-1.958 0.186,-3.562 1.486,-4.86 0.91,-0.911 2.111,-1.351 3.395,-1.351 1.284,0 2.531,0.473 3.426,1.384 0.693,0.709 1.047,1.654 1.148,2.6 l -2.229,0 c -0.052,-0.523 -0.236,-0.896 -0.539,-1.265 -0.39,-0.491 -1.064,-0.744 -1.808,-0.744 -0.692,0 -1.368,0.287 -1.842,0.794 -0.826,0.859 -0.826,2.344 -0.826,3.442 0,1.098 0,2.582 0.826,3.443 0.474,0.506 1.147,0.793 1.842,0.793 0.742,0 1.418,-0.27 1.808,-0.76 0.303,-0.371 0.487,-0.793 0.539,-1.316 l 2.229,0 c -0.102,0.945 -0.455,1.908 -1.148,2.615 z"
         id="path31" /><path
         style="fill:#00a5ff;fill-opacity:1"
         inkscape:connector-curvature="0"
         d="m 120.34,42.322 0,-2.179 2.262,0 0,2.179 -2.262,0 z m 0.066,9.99 0,-8.776 2.145,0 0,8.776 -2.145,0 z"
         id="path33" /><path
         style="fill:#00a5ff;fill-opacity:1"
         inkscape:connector-curvature="0"
         d="m 128.359,52.432 c -1.773,0 -2.65,-1.014 -2.65,-2.701 l 0,-4.456 -1.605,0 0,-1.739 1.605,0 0,-2.226 2.109,-0.524 0,2.751 2.213,0 0,1.739 -2.213,0 0,4.27 c 0,0.677 0.305,0.963 0.979,0.963 0.438,0 0.795,-0.018 1.367,-0.086 l 0,1.771 c -0.59,0.152 -1.18,0.238 -1.805,0.238 z"
         id="path35" /><path
         style="fill:#00a5ff;fill-opacity:1"
         inkscape:connector-curvature="0"
         d="m 131.922,42.322 0,-2.179 2.264,0 0,2.179 -2.264,0 z m 0.068,9.99 0,-8.776 2.145,0 0,8.776 -2.145,0 z"
         id="path37" /><path
         style="fill:#00a5ff;fill-opacity:1"
         inkscape:connector-curvature="0"
         d="m 144.199,48.582 -5.877,0 c -0.018,0.676 0.219,1.316 0.641,1.723 0.305,0.285 0.727,0.539 1.301,0.539 0.609,0 0.979,-0.117 1.283,-0.422 0.186,-0.186 0.338,-0.422 0.422,-0.742 l 2.027,0 c -0.051,0.523 -0.406,1.215 -0.744,1.619 -0.742,0.877 -1.838,1.232 -2.953,1.232 -1.199,0 -2.078,-0.422 -2.771,-1.078 -0.877,-0.846 -1.352,-2.078 -1.352,-3.512 0,-1.4 0.422,-2.649 1.268,-3.51 0.658,-0.676 1.604,-1.115 2.806,-1.115 1.299,0 2.479,0.523 3.207,1.621 0.644,0.963 0.793,1.958 0.76,3.055 -0.002,0 -0.018,0.404 -0.018,0.59 z m -2.635,-3.071 c -0.287,-0.303 -0.728,-0.506 -1.334,-0.506 -0.644,0 -1.166,0.27 -1.472,0.675 -0.305,0.389 -0.438,0.793 -0.454,1.367 l 3.801,0 c -0.017,-0.658 -0.205,-1.165 -0.541,-1.536 z"
         id="path39" /><path
         style="fill:#00a5ff;fill-opacity:1"
         inkscape:connector-curvature="0"
         d="m 152.252,51.52 c -0.709,0.709 -1.805,1.013 -3.006,1.013 -1.113,0 -2.111,-0.32 -2.836,-1.013 -0.506,-0.49 -0.93,-1.215 -0.93,-2.043 l 1.977,0 c 0,0.39 0.203,0.812 0.473,1.031 0.338,0.268 0.726,0.387 1.334,0.387 0.709,0 1.789,-0.151 1.789,-1.112 0,-0.509 -0.336,-0.845 -0.877,-0.929 -0.777,-0.119 -1.654,-0.17 -2.43,-0.338 -1.201,-0.254 -2.012,-1.231 -2.012,-2.346 0,-0.895 0.371,-1.52 0.896,-1.975 0.642,-0.557 1.57,-0.879 2.666,-0.879 1.047,0 2.111,0.338 2.754,1.029 0.474,0.508 0.777,1.166 0.777,1.807 l -2.011,0 c 0,-0.338 -0.151,-0.608 -0.354,-0.827 -0.254,-0.254 -0.709,-0.406 -1.146,-0.406 -0.308,0 -0.592,0 -0.914,0.135 -0.371,0.154 -0.676,0.475 -0.676,0.93 0,0.625 0.541,0.811 1.014,0.877 0.793,0.102 1.014,0.119 1.875,0.254 1.385,0.219 2.398,1.096 2.398,2.48 0.001,0.844 -0.304,1.467 -0.761,1.925 z"
         id="path41" /></g><g
       id="g43"
       style="fill:#00a5ff;fill-opacity:1"><path
         style="fill:#00a5ff;fill-opacity:1"
         inkscape:connector-curvature="0"
         d="m 73.16,69.525 c -0.912,0.91 -2.313,1.281 -3.783,1.281 -1.266,0 -2.601,-0.336 -3.58,-1.23 -0.709,-0.643 -1.25,-1.654 -1.25,-2.785 l 2.229,0 c 0,0.59 0.271,1.113 0.625,1.469 0.507,0.506 1.317,0.641 2.01,0.641 0.828,0 1.622,-0.168 2.078,-0.641 0.27,-0.287 0.473,-0.574 0.473,-1.148 0,-0.877 -0.675,-1.282 -1.418,-1.418 -0.811,-0.149 -1.857,-0.184 -2.651,-0.319 -1.655,-0.271 -3.04,-1.351 -3.04,-3.342 0,-0.943 0.422,-1.738 1.047,-2.363 0.794,-0.774 2.111,-1.265 3.512,-1.265 1.284,0 2.534,0.404 3.344,1.164 0.709,0.677 1.199,1.554 1.216,2.55 l -2.23,0 c -0.016,-0.425 -0.236,-0.88 -0.523,-1.183 -0.388,-0.406 -1.182,-0.643 -1.823,-0.643 -0.676,0 -1.453,0.152 -1.942,0.66 -0.253,0.268 -0.405,0.572 -0.405,1.012 0,0.775 0.506,1.182 1.216,1.299 0.76,0.119 1.824,0.203 2.6,0.305 1.791,0.252 3.294,1.418 3.294,3.459 -0.002,1.113 -0.408,1.906 -0.999,2.497 z"
         id="path45" /><path
         style="fill:#00a5ff;fill-opacity:1"
         inkscape:connector-curvature="0"
         d="m 81.604,70.588 -0.151,-1.146 c -0.423,0.859 -1.4,1.365 -2.517,1.365 -1.875,0 -3.04,-1.264 -3.04,-3.139 l 0,-5.855 2.11,0 0,5.386 c 0,1.028 0.406,1.668 1.521,1.668 0.488,0 0.826,-0.185 1.08,-0.438 0.506,-0.473 0.641,-1.266 0.641,-1.975 l 0,-4.641 2.111,0 0,8.774 -1.755,10e-4 0,0 z"
         id="path47" /><path
         style="fill:#00a5ff;fill-opacity:1"
         inkscape:connector-curvature="0"
         d="m 96.346,70.588 0,-5.451 c 0,-1.08 -0.287,-1.705 -1.352,-1.705 -1.199,0 -1.721,1.269 -1.721,2.363 l 0,4.793 -2.097,0 0,-5.451 c 0,-1.08 -0.286,-1.705 -1.35,-1.705 -1.201,0 -1.74,1.269 -1.74,2.363 l 0,4.793 -2.096,0 0,-8.775 1.758,0 0.168,1.164 c 0.49,-0.809 1.334,-1.385 2.5,-1.385 1.231,0 2.076,0.541 2.517,1.436 0.524,-0.909 1.471,-1.436 2.649,-1.436 1.875,0 2.854,1.25 2.854,3.072 l 0,5.924 -2.09,0 z"
         id="path49" /><path
         style="fill:#00a5ff;fill-opacity:1"
         inkscape:connector-curvature="0"
         d="m 111.289,70.588 0,-5.451 c 0,-1.08 -0.287,-1.705 -1.352,-1.705 -1.199,0 -1.724,1.269 -1.724,2.363 l 0,4.793 -2.094,0 0,-5.451 c 0,-1.08 -0.287,-1.705 -1.353,-1.705 -1.197,0 -1.738,1.269 -1.738,2.363 l 0,4.793 -2.094,0 0,-8.775 1.756,0 0.17,1.164 c 0.488,-0.809 1.332,-1.385 2.498,-1.385 1.234,0 2.078,0.541 2.517,1.436 0.522,-0.909 1.472,-1.436 2.651,-1.436 1.873,0 2.854,1.25 2.854,3.072 l 0,5.924 -2.091,0 z"
         id="path51" /><path
         style="fill:#00a5ff;fill-opacity:1"
         inkscape:connector-curvature="0"
         d="m 115.846,60.598 0,-2.178 2.266,0 0,2.178 -2.266,0 z m 0.068,9.99 0,-8.775 2.146,0 0,8.775 -2.146,0 z"
         id="path53" /><path
         style="fill:#00a5ff;fill-opacity:1"
         inkscape:connector-curvature="0"
         d="m 123.867,70.707 c -1.771,0 -2.65,-1.014 -2.65,-2.701 l 0,-4.455 -1.605,0 0,-1.738 1.605,0 0,-2.227 2.111,-0.525 0,2.752 2.213,0 0,1.738 -2.213,0 0,4.27 c 0,0.677 0.305,0.962 0.979,0.962 0.439,0 0.795,-0.017 1.369,-0.084 l 0,1.772 c -0.592,0.15 -1.182,0.236 -1.809,0.236 z"
         id="path55" /></g></g><text
     xml:space="preserve"
     style="font-style:normal;font-weight:normal;font-size:10px;line-height:100%;font-family:Akkurat;letter-spacing:0px;word-spacing:0px;fill:#000000;fill-opacity:1;stroke:none;stroke-width:1px;stroke-linecap:butt;stroke-linejoin:miter;stroke-opacity:1;-inkscape-font-specification:'Akkurat, Normal';font-stretch:normal;font-variant:normal;text-anchor:start;text-align:start;writing-mode:lr;"
     x="179.48074"
     y="82.058365"
     id="text5646"
     sodipodi:linespacing="100%"><tspan
       sodipodi:role="line"
       id="tspan5648"
       x="179.48074"
       y="82.058365"
       style="font-style:normal;font-variant:normal;font-weight:normal;font-stretch:normal;font-size:10px;line-height:100%;font-family:Akkurat;-inkscape-font-specification:'Akkurat, Normal';text-align:start;writing-mode:lr;text-anchor:start;">Medialab-Prado</tspan><tspan
       sodipodi:role="line"
       x="179.48074"
       y="94.558365"
       style="font-style:normal;font-variant:normal;font-weight:normal;font-stretch:normal;font-size:10px;line-height:100%;font-family:Akkurat;-inkscape-font-specification:'Akkurat, Normal';text-align:start;writing-mode:lr;text-anchor:start;"
       id="tspan4172">October 5th, 2016</tspan></text>
</svg>