<?xml version="1.0" encoding="UTF-8" standalone="no"?>
<!-- Generator: Adobe Illustrator 18.0.0, SVG Export Plug-In . SVG Version: 6.00 Build 0)  -->

<svg
   xmlns:dc="http://purl.org/dc/elements/1.1/"
   xmlns:cc="http://creativecommons.org/ns#"
   xmlns:rdf="http://www.w3.org/1999/02/22-rdf-syntax-ns#"
   xmlns:svg="http://www.w3.org/2000/svg"
   xmlns="http://www.w3.org/2000/svg"
   xmlns:sodipodi="http://sodipodi.sourceforge.net/DTD/sodipodi-0.dtd"
   xmlns:inkscape="http://www.inkscape.org/namespaces/inkscape"
   version="1.1"
   id="Layer_1"
   x="0px"
   y="0px"
   viewBox="2.4 33.7 300.5 32.3"
   enable-background="new 2.4 33.7 300.5 32.3"
   xml:space="preserve"
   inkscape:version="0.91 r13725"
   sodipodi:docname="logo.svg"><metadata
     id="metadata3927"><rdf:RDF><cc:Work
         rdf:about=""><dc:format>image/svg+xml</dc:format><dc:type
           rdf:resource="http://purl.org/dc/dcmitype/StillImage" /></cc:Work></rdf:RDF></metadata><defs
     id="defs3925" /><sodipodi:namedview
     pagecolor="#ffffff"
     bordercolor="#666666"
     borderopacity="1"
     objecttolerance="10"
     gridtolerance="10"
     guidetolerance="10"
     inkscape:pageopacity="0"
     inkscape:pageshadow="2"
     inkscape:window-width="1360"
     inkscape:window-height="708"
     id="namedview3923"
     showgrid="false"
     showguides="false"
     inkscape:guide-bbox="true"
     inkscape:zoom="1.4142136"
     inkscape:cx="113.11223"
     inkscape:cy="26.550658"
     inkscape:window-x="0"
     inkscape:window-y="31"
     inkscape:window-maximized="1"
     inkscape:current-layer="layer3"><sodipodi:guide
       position="162.93667,18.656871"
       orientation="0,1"
       id="guide3929" /><sodipodi:guide
       position="195.77276,6.7164737"
       orientation="0,1"
       id="guide3931" /><sodipodi:guide
       position="206.15324,7.7395415"
       orientation="0,1"
       id="guide3603" /></sodipodi:namedview><text
     xml:space="preserve"
     style="font-style:normal;font-weight:normal;font-size:40px;line-height:125%;font-family:sans-serif;letter-spacing:0px;word-spacing:0px;fill:#000000;fill-opacity:1;stroke:none;stroke-width:1px;stroke-linecap:butt;stroke-linejoin:miter;stroke-opacity:1"
     x="-51.331787"
     y="-38.975994"
     id="text3599"
     sodipodi:linespacing="125%"><tspan
       sodipodi:role="line"
       id="tspan3601"
       x="-51.331787"
       y="-38.975994" /></text>
<g
     inkscape:groupmode="layer"
     id="layer3"
     inkscape:label="logo"
     style="display:inline"><path
       inkscape:connector-curvature="0"
       d="m 55.431749,44.803445 -13.357202,0 c 0,0 -1.258247,-0.02119 -1.852058,0.409637 l 8.624104,-8.688211 c 0,0 4.683659,2.555068 6.585156,8.278574 z m -7.777123,-8.963113 -9.487383,9.445007 c 0,0 -0.905113,0.874145 -1.020289,1.599974 l -0.0016,-12.241838 c 0,0 5.118287,-1.505985 10.509302,1.196857 z m -11.836004,-0.838289 0,13.357202 c 0,0 -0.02173,1.257161 0.409094,1.852601 l -8.687667,-8.624647 c 0,0 2.555068,-4.683659 8.278573,-6.585156 z m -8.963112,7.77658 9.445549,9.44392 c 0,0 0.873602,0.905113 1.597801,1.021919 l -12.240208,0.04346 c 0,0 -1.505441,-5.11883 1.196858,-10.509302 z m -0.838833,11.83546 13.357201,0 c 0,0 1.258248,0.02228 1.851515,-0.40855 l -8.623559,8.688212 c 0,0 -4.683659,-2.555069 -6.585157,-8.279662 z m 7.777123,8.963114 9.445007,-9.446094 c 0,0 0.905112,-0.873059 1.020832,-1.597801 l 0.04455,12.241838 c -0.0011,0 -5.119917,1.504899 -10.510389,-1.197943 z m 11.836547,0.838288 0,-13.357201 c 0,0 0.02119,-1.256075 -0.409637,-1.852058 l 8.688212,8.624104 c -0.0011,0 -2.556156,4.683658 -8.278575,6.585155 z m 8.962027,-7.775492 -9.445007,-9.445008 c 0,0 -0.874146,-0.905112 -1.597801,-1.020832 l 12.240751,-0.04509 c 0,5.44e-4 1.504899,5.119374 -1.197943,10.510933 z"
       id="path3436"
       style="fill:#438dfb;fill-opacity:1" /></g><g
     inkscape:groupmode="layer"
     id="layer4"
     inkscape:label="lema"><text
       xml:space="preserve"
       style="font-style:normal;font-variant:normal;font-weight:bold;font-stretch:normal;font-size:25px;line-height:125%;font-family:'Nimbus Roman No9 L';-inkscape-font-specification:'Nimbus Roman No9 L, Bold';text-align:start;letter-spacing:0px;word-spacing:0px;writing-mode:lr-tb;text-anchor:start;fill:#000000;fill-opacity:1;stroke:none;stroke-width:1px;stroke-linecap:butt;stroke-linejoin:miter;stroke-opacity:1"
       x="57.493351"
       y="57.86171"
       id="text3933"
       sodipodi:linespacing="125%"><tspan
         sodipodi:role="line"
         id="tspan3937"
         x="57.493351"
         y="57.86171"
         style="font-style:normal;font-variant:normal;font-weight:bold;font-stretch:normal;font-size:20px;line-height:125%;font-family:'Nimbus Sans L';-inkscape-font-specification:'Nimbus Sans L, Bold';text-align:start;writing-mode:lr-tb;text-anchor:start">pen Cities <tspan
   style="font-style:normal;font-variant:normal;font-weight:bold;font-stretch:normal;font-size:20px;line-height:125%;font-family:'Nimbus Sans L';-inkscape-font-specification:'Nimbus Sans L, Bold';text-align:start;writing-mode:lr-tb;text-anchor:start;fill:#438dfb;fill-opacity:1"
   id="tspan3387">Summit</tspan> 2016</tspan></text>
</g></svg>