<?xml version="1.0" encoding="utf-8"?>
<!-- Generator: Adobe Illustrator 18.0.0, SVG Export Plug-In . SVG Version: 6.00 Build 0)  -->
<!DOCTYPE svg PUBLIC "-//W3C//DTD SVG 1.1//EN" "http://www.w3.org/Graphics/SVG/1.1/DTD/svg11.dtd">
<svg version="1.1"
	 id="Layer_1" xmlns:dc="http://purl.org/dc/elements/1.1/" xmlns:cc="http://creativecommons.org/ns#" xmlns:rdf="http://www.w3.org/1999/02/22-rdf-syntax-ns#" xmlns:svg="http://www.w3.org/2000/svg" xmlns:sodipodi="http://sodipodi.sourceforge.net/DTD/sodipodi-0.dtd" xmlns:inkscape="http://www.inkscape.org/namespaces/inkscape" sodipodi:docname="logo-mobile.svg" inkscape:version="0.91 r13725"
	 xmlns="http://www.w3.org/2000/svg" xmlns:xlink="http://www.w3.org/1999/xlink" x="0px" y="0px" viewBox="81.9 145.1 2000 983.6"
	 enable-background="new 81.9 145.1 2000 983.6" xml:space="preserve">
<sodipodi:namedview  inkscape:cy="-24.132637" inkscape:cx="-78.702206" inkscape:zoom="2" showguides="true" showgrid="false" guidetolerance="10" gridtolerance="10" objecttolerance="10" bordercolor="#666666" pagecolor="#ffffff" borderopacity="1" id="namedview177" inkscape:current-layer="Layer_1" inkscape:window-maximized="1" inkscape:window-y="27" inkscape:window-x="0" inkscape:guide-bbox="true" inkscape:window-height="1016" inkscape:pageshadow="2" inkscape:pageopacity="0" inkscape:window-width="1920" inkscape:snap-page="true">
	<sodipodi:guide  orientation="1,0" position="0,45.949147" id="guide4367"></sodipodi:guide>
	<sodipodi:guide  orientation="1,0" position="7.3193332,125.24192" id="guide4375"></sodipodi:guide>
</sodipodi:namedview>
<rect id="rect3" x="595.5" y="365.4" inkscape:export-ydpi="300" inkscape:export-xdpi="300" inkscape:export-filename="/home/flow/Documentos/curro/medialab-prado/tpc/open-cities/text4371.png" fill="none" width="1485.5" height="628.4">
</rect>
<rect id="rect105" x="141.4" y="549" inkscape:export-ydpi="300" inkscape:export-xdpi="300" inkscape:export-filename="/home/flow/Documentos/curro/medialab-prado/tpc/open-cities/text4371.png" fill="none" width="391.2" height="330.8">
</rect>
<rect id="rect115" x="81.9" y="145.1" inkscape:export-ydpi="300" inkscape:export-xdpi="300" inkscape:export-filename="/home/flow/Documentos/curro/medialab-prado/tpc/open-cities/text4371.png" fill="none" width="2000" height="171.8">
</rect>
<g enable-background="new    ">
	<path fill="#00B9F2" d="M148.5,258.3c1.1-9.7,3.4-18,7-25c3.6-6.9,8.8-12.4,15.6-16.3c6.8-3.9,15.9-5.8,27.4-5.8s20.6,1.9,27.4,5.8
		c6.8,3.9,12,9.3,15.6,16.3c3.6,6.9,6,15.3,7,25c1.1,9.7,1.6,20.3,1.6,31.8c0,11.6-0.5,22.3-1.6,31.9c-1.1,9.6-3.4,17.9-7,24.9
		c-3.6,6.9-8.8,12.3-15.6,15.9c-6.8,3.7-15.9,5.5-27.4,5.5s-20.6-1.8-27.4-5.5c-6.8-3.7-12-9-15.6-15.9c-3.6-6.9-6-15.2-7-24.9
		c-1.1-9.6-1.6-20.3-1.6-31.9C146.9,278.6,147.5,268,148.5,258.3z M178.3,316.1c0.5,7.2,1.5,13,3,17.4c1.5,4.5,3.6,7.7,6.4,9.8
		c2.8,2.1,6.4,3.1,10.9,3.1c4.5,0,8.2-1,10.9-3.1c2.8-2.1,4.9-5.3,6.4-9.8c1.5-4.5,2.5-10.3,3-17.4c0.5-7.2,0.7-15.8,0.7-26
		s-0.2-18.8-0.7-25.9c-0.5-7.1-1.5-12.9-3-17.4c-1.5-4.5-3.6-7.8-6.4-9.9c-2.8-2.1-6.4-3.1-10.9-3.1c-4.5,0-8.2,1-10.9,3.1
		c-2.8,2.1-4.9,5.4-6.4,9.9c-1.5,4.5-2.5,10.3-3,17.4c-0.5,7.1-0.7,15.7-0.7,25.9S177.8,308.9,178.3,316.1z"/>
	<path fill="#00B9F2" d="M295.5,251.6v12.1h0.4c3.3-5.4,6.9-9.2,10.9-11.6s9-3.5,15-3.5c12,0,20.9,4.7,26.6,14.1
		c5.7,9.4,8.5,24.8,8.5,46c0,21.3-2.8,36.5-8.5,45.7c-5.7,9.2-14.5,13.8-26.6,13.8c-5.5,0-10.2-1-14.1-3.1
		c-3.9-2.1-7.4-5.3-10.5-9.9h-0.4v47.4h-29.3V251.6H295.5z M299.7,336.9c1.9,6.3,6.1,9.5,12.6,9.5c6.4,0,10.5-3.2,12.4-9.5
		c1.9-6.3,2.9-15.7,2.9-28.2c0-12.5-1-21.9-2.9-28.2c-1.9-6.3-6.1-9.5-12.4-9.5c-6.5,0-10.7,3.2-12.6,9.5
		c-1.9,6.3-2.9,15.7-2.9,28.2C296.8,321.2,297.8,330.6,299.7,336.9z"/>
	<path fill="#00B9F2" d="M398.8,322.4c0,3.4,0.2,6.7,0.7,9.9c0.5,3.2,1.3,6,2.4,8.5c1.1,2.5,2.6,4.5,4.5,6c1.8,1.5,4.1,2.2,6.8,2.2
		c5,0,8.6-1.8,10.8-5.3c2.3-3.5,3.8-8.9,4.7-16.2h26.4c-0.6,13.3-4.1,23.5-10.6,30.4c-6.5,6.9-16.8,10.4-30.8,10.4
		c-10.6,0-18.9-1.8-24.9-5.3c-6-3.5-10.3-8.2-13.2-14c-2.8-5.8-4.6-12.3-5.2-19.6c-0.6-7.2-1-14.5-1-21.7c0-7.7,0.5-15,1.6-22.1
		c1.1-7.1,3.2-13.4,6.4-18.9c3.2-5.5,7.8-9.9,13.7-13.2c6-3.3,13.9-4.9,23.8-4.9c8.5,0,15.5,1.4,20.9,4.1c5.5,2.8,9.7,6.7,12.9,11.7
		c3.1,5,5.2,11.1,6.4,18.3c1.1,7.2,1.7,15.1,1.7,23.9v6.6h-58V322.4z M428,284.2c-0.4-3.3-1.2-6.2-2.2-8.5s-2.6-4.1-4.5-5.3
		c-1.9-1.2-4.4-1.8-7.3-1.8s-5.4,0.7-7.3,2c-1.9,1.3-3.4,3.1-4.6,5.3c-1.1,2.2-1.9,4.6-2.4,7.3c-0.5,2.7-0.7,5.4-0.7,8.1v4.5h30
		C428.7,291.4,428.4,287.5,428,284.2z"/>
	<path fill="#00B9F2" d="M500.3,251.6V265h0.4c3.1-5.7,7.2-9.8,12.1-12.4c5-2.6,10.6-3.9,17-3.9c9.4,0,16.5,2.6,21.6,7.7
		c5,5.1,7.5,13.4,7.5,24.9v84.8h-29.3v-78.9c0-6-1-10.1-3-12.4c-2-2.3-5.2-3.5-9.6-3.5c-10.3,0-15.5,6.3-15.5,18.9v75.9h-29.3V251.6
		H500.3z"/>
</g>
<g>
	<path d="M707.7,241.3c-2.6-5-7.4-7.5-14.3-7.5c-3.8,0-7,1-9.5,3.1c-2.5,2.1-4.4,5.4-5.8,10c-1.4,4.6-2.4,10.6-3,18.1
		c-0.6,7.4-0.9,16.5-0.9,27.3c0,11.5,0.4,20.8,1.2,27.8c0.8,7.1,2,12.6,3.6,16.5c1.6,3.9,3.7,6.5,6.2,7.9c2.5,1.3,5.3,2,8.6,2
		c2.7,0,5.2-0.5,7.5-1.4c2.3-0.9,4.4-2.8,6.1-5.5s3-6.7,4-11.7c1-5,1.5-11.7,1.5-19.9h30.6c0,8.2-0.6,16-1.9,23.4
		c-1.3,7.4-3.7,13.8-7.1,19.3c-3.5,5.5-8.4,9.9-14.7,13c-6.3,3.1-14.5,4.7-24.6,4.7c-11.5,0-20.6-1.8-27.4-5.5
		c-6.8-3.7-12-9-15.6-15.9c-3.6-6.9-6-15.2-7-24.9c-1.1-9.6-1.6-20.3-1.6-31.9c0-11.5,0.5-22.1,1.6-31.8c1.1-9.7,3.4-18,7-25
		c3.6-6.9,8.8-12.4,15.6-16.3c6.8-3.9,15.9-5.8,27.4-5.8c10.9,0,19.5,1.8,25.8,5.3c6.3,3.5,11,8,14.1,13.5
		c3.1,5.5,5.1,11.3,5.8,17.6c0.8,6.3,1.2,12.2,1.2,17.8h-30.6C711.6,254.3,710.3,246.3,707.7,241.3z"/>
	<path d="M790.5,212.4v25.1h-29.3v-25.1H790.5z M790.5,251.6v114.4h-29.3V251.6H790.5z"/>
	<path d="M846.8,218.8v32.7h17v20h-17v61.9c0,4.5,0.7,7.8,2,9.7c1.3,1.9,4.1,2.9,8.4,2.9c1.1,0,2.3,0,3.4-0.1
		c1.1-0.1,2.2-0.2,3.2-0.3v20.4c-3.3,0-6.4,0.1-9.5,0.3c-3,0.2-6.3,0.3-9.7,0.3c-5.7,0-10.3-0.4-13.9-1.2c-3.6-0.8-6.4-2.3-8.3-4.7
		c-1.9-2.3-3.2-5.4-3.9-9.2c-0.7-3.8-1.1-8.6-1.1-14.5v-65.5h-14.9v-20h14.9v-32.7H846.8z"/>
	<path d="M904.4,212.4v25.1h-29.3v-25.1H904.4z M904.4,251.6v114.4h-29.3V251.6H904.4z"/>
	<path d="M950.1,322.4c0,3.4,0.2,6.7,0.7,9.9c0.5,3.2,1.3,6,2.4,8.5c1.1,2.5,2.6,4.5,4.5,6c1.8,1.5,4.1,2.2,6.8,2.2
		c5,0,8.6-1.8,10.8-5.3c2.3-3.5,3.8-8.9,4.7-16.2h26.4c-0.6,13.3-4.1,23.5-10.6,30.4c-6.5,6.9-16.8,10.4-30.8,10.4
		c-10.6,0-18.9-1.8-24.9-5.3c-6-3.5-10.3-8.2-13.2-14c-2.8-5.8-4.6-12.3-5.2-19.6c-0.6-7.2-1-14.5-1-21.7c0-7.7,0.5-15,1.6-22.1
		c1.1-7.1,3.2-13.4,6.4-18.9c3.2-5.5,7.8-9.9,13.7-13.2c6-3.3,13.9-4.9,23.8-4.9c8.5,0,15.5,1.4,20.9,4.1c5.5,2.8,9.7,6.7,12.9,11.7
		c3.1,5,5.2,11.1,6.4,18.3c1.1,7.2,1.7,15.1,1.7,23.9v6.6h-58V322.4z M979.2,284.2c-0.4-3.3-1.2-6.2-2.2-8.5s-2.6-4.1-4.5-5.3
		c-1.9-1.2-4.4-1.8-7.3-1.8s-5.4,0.7-7.3,2c-1.9,1.3-3.4,3.1-4.6,5.3c-1.1,2.2-1.9,4.6-2.4,7.3c-0.5,2.7-0.7,5.4-0.7,8.1v4.5h30
		C979.9,291.4,979.7,287.5,979.2,284.2z"/>
	<path d="M1044.9,332.3c0,5,1.3,9,3.9,12c2.6,3,6.4,4.6,11.4,4.6c4.5,0,8.1-1.1,10.8-3.4c2.7-2.3,4-5.7,4-10.2
		c0-3.7-1.1-6.5-3.2-8.4c-2.1-1.9-4.6-3.4-7.4-4.6l-20.6-7.4c-8.1-2.8-14.2-6.8-18.3-12c-4.1-5.2-6.2-11.8-6.2-19.9
		c0-4.7,0.8-9.1,2.3-13.3c1.6-4.2,4-7.8,7.4-10.9c3.4-3.1,7.8-5.6,13.1-7.4c5.3-1.8,11.7-2.8,19.2-2.8c13.3,0,23.2,2.8,29.5,8.5
		c6.4,5.7,9.6,13.7,9.6,24v4.7h-26.4c0-6-1-10.3-2.9-13.1c-1.9-2.8-5.3-4.1-10.1-4.1c-3.7,0-6.9,1-9.7,3.1c-2.8,2.1-4.1,5.1-4.1,9.2
		c0,2.8,0.9,5.4,2.7,7.7c1.8,2.3,5.1,4.2,10.1,5.7l17.6,6c9.2,3.1,15.7,7.2,19.6,12.2c3.8,5,5.7,11.9,5.7,20.5
		c0,6.1-1.1,11.4-3.2,15.8c-2.1,4.5-5.1,8.2-8.8,11.2c-3.8,3-8.2,5.1-13.4,6.4c-5.2,1.3-10.9,1.9-17.1,1.9c-8.2,0-15.1-0.8-20.5-2.3
		c-5.5-1.6-9.8-3.9-13-7c-3.2-3.1-5.4-6.9-6.7-11.4s-1.9-9.5-1.9-15v-4h26.4V332.3z"/>
</g>
<g enable-background="new    ">
	<path fill="#00B9F2" d="M1192,323c0,3.5,0.3,6.8,0.9,9.7c0.6,2.9,1.6,5.4,3.2,7.3c1.6,2,3.6,3.5,6.3,4.7c2.6,1.1,5.9,1.7,9.9,1.7
		c4.7,0,8.9-1.5,12.6-4.6c3.8-3,5.6-7.8,5.6-14.1c0-3.4-0.5-6.3-1.4-8.8c-0.9-2.5-2.4-4.7-4.6-6.7c-2.1-2-4.9-3.8-8.4-5.4
		c-3.5-1.6-7.8-3.3-12.9-5c-6.8-2.3-12.7-4.7-17.6-7.4c-5-2.7-9.1-5.8-12.4-9.5c-3.3-3.6-5.8-7.8-7.3-12.5
		c-1.6-4.7-2.3-10.2-2.3-16.5c0-15,4.2-26.2,12.5-33.6c8.4-7.4,19.8-11.1,34.4-11.1c6.8,0,13.1,0.7,18.8,2.2
		c5.7,1.5,10.7,3.9,14.9,7.2c4.2,3.3,7.4,7.6,9.8,12.8c2.3,5.2,3.5,11.4,3.5,18.6v4.3h-29.3c0-7.2-1.3-12.8-3.8-16.7
		c-2.6-3.9-6.8-5.8-12.8-5.8c-3.4,0-6.2,0.5-8.5,1.5c-2.3,1-4.1,2.3-5.4,3.9c-1.3,1.6-2.3,3.5-2.8,5.6c-0.5,2.1-0.7,4.3-0.7,6.6
		c0,4.7,1,8.6,3,11.8c2,3.2,6.2,6.1,12.8,8.8l23.6,10.2c5.8,2.6,10.6,5.2,14.2,8c3.7,2.8,6.6,5.7,8.8,8.9c2.2,3.2,3.7,6.7,4.6,10.5
		c0.9,3.8,1.3,8.1,1.3,12.8c0,16-4.6,27.7-13.9,35c-9.3,7.3-22.2,10.9-38.8,10.9c-17.3,0-29.7-3.8-37.1-11.3
		c-7.4-7.5-11.2-18.3-11.2-32.3v-6.2h30.6V323z"/>
	<path fill="#00B9F2" d="M1335.1,352.5c-3.1,5.7-7.2,9.7-12.1,12.1c-5,2.4-10.6,3.6-17,3.6c-9.4,0-16.5-2.4-21.6-7.3
		c-5-4.9-7.5-13.1-7.5-24.6v-84.8h29.3v78.9c0,6,1,10.1,3,12.4c2,2.3,5.2,3.5,9.6,3.5c10.3,0,15.5-6.3,15.5-18.9v-75.9h29.3v114.4
		h-28.1v-13.4H1335.1z"/>
	<path fill="#00B9F2" d="M1411.2,251.6v11.7h0.4c3.7-5.2,7.8-9,12.4-11.3c4.6-2.3,10.1-3.4,16.5-3.4c6.8,0,12.5,1.6,17.1,4.7
		c4.6,3.1,7.7,7.7,9.2,13.6h0.4c2.3-6.1,5.9-10.7,10.9-13.7c5-3,11-4.6,18-4.6c9.8,0,17,2.9,21.6,8.8c4.6,5.9,6.9,14.3,6.9,25.4
		v83.1h-29.3V286c0-4.8-0.9-8.5-2.7-11.1c-1.8-2.6-4.7-3.8-8.8-3.8c-4.7,0-8.4,1.6-11.2,4.7c-2.8,3.1-4.1,8.1-4.1,14.9v75.3h-29.3
		V286c0-4.8-0.9-8.5-2.7-11.1c-1.8-2.6-4.7-3.8-8.8-3.8c-4.7,0-8.4,1.6-11.2,4.7c-2.8,3.1-4.1,8.1-4.1,14.9v75.3h-29.3V251.6H1411.2
		z"/>
	<path fill="#00B9F2" d="M1572.3,251.6v11.7h0.4c3.7-5.2,7.8-9,12.4-11.3c4.6-2.3,10.1-3.4,16.5-3.4c6.8,0,12.5,1.6,17.1,4.7
		c4.6,3.1,7.7,7.7,9.2,13.6h0.4c2.3-6.1,5.9-10.7,10.9-13.7c5-3,11-4.6,18-4.6c9.8,0,17,2.9,21.6,8.8c4.6,5.9,6.9,14.3,6.9,25.4
		v83.1h-29.3V286c0-4.8-0.9-8.5-2.7-11.1c-1.8-2.6-4.7-3.8-8.8-3.8c-4.7,0-8.4,1.6-11.2,4.7c-2.8,3.1-4.1,8.1-4.1,14.9v75.3h-29.3
		V286c0-4.8-0.9-8.5-2.7-11.1c-1.8-2.6-4.7-3.8-8.8-3.8c-4.7,0-8.4,1.6-11.2,4.7c-2.8,3.1-4.1,8.1-4.1,14.9v75.3h-29.3V251.6H1572.3
		z"/>
	<path fill="#00B9F2" d="M1735.8,212.4v25.1h-29.3v-25.1H1735.8z M1735.8,251.6v114.4h-29.3V251.6H1735.8z"/>
	<path fill="#00B9F2" d="M1792.2,218.8v32.7h17v20h-17v61.9c0,4.5,0.7,7.8,2,9.7c1.3,1.9,4.1,2.9,8.4,2.9c1.1,0,2.3,0,3.4-0.1
		c1.1-0.1,2.2-0.2,3.2-0.3v20.4c-3.3,0-6.4,0.1-9.5,0.3c-3,0.2-6.3,0.3-9.7,0.3c-5.7,0-10.3-0.4-13.9-1.2c-3.6-0.8-6.4-2.3-8.3-4.7
		s-3.2-5.4-3.9-9.2c-0.7-3.8-1.1-8.6-1.1-14.5v-65.5h-14.9v-20h14.9v-32.7H1792.2z"/>
</g>
<circle id="path3521" inkscape:export-ydpi="300" inkscape:export-xdpi="300" inkscape:export-filename="/home/flow/Documentos/curro/medialab-prado/tpc/open-cities/text4371.png" fill="none" stroke="#00B9F2" stroke-width="1.178" cx="362.1" cy="657.8" r="183.2">
</circle>
<g id="layer1" inkscape:groupmode="layer" inkscape:label="Layer 1">
	<text transform="matrix(1 0 0 1 331.3745 771.283)" font-family="'ArialNarrow-Bold'" font-size="296.5894">C</text>
</g>
<g id="layer2" inkscape:groupmode="layer" inkscape:label="Layer 2">
	<text transform="matrix(1 0 0 1 200.2577 771.2756)" fill="#00B9F2" font-family="'ArialNarrow-Bold'" font-size="296.5894">O</text>
</g>
<g enable-background="new    ">
	<path d="M613.5,496c0.7-6.8,2.4-12.6,4.9-17.5c2.5-4.9,6.2-8.7,10.9-11.4c4.8-2.7,11.2-4.1,19.2-4.1s14.4,1.4,19.2,4.1
		c4.8,2.7,8.4,6.5,10.9,11.4c2.5,4.9,4.2,10.7,4.9,17.5c0.7,6.8,1.1,14.2,1.1,22.2c0,8.1-0.4,15.6-1.1,22.3
		c-0.7,6.7-2.4,12.6-4.9,17.4c-2.5,4.9-6.2,8.6-10.9,11.2c-4.8,2.6-11.2,3.9-19.2,3.9s-14.4-1.3-19.2-3.9
		c-4.8-2.6-8.4-6.3-10.9-11.2c-2.5-4.9-4.2-10.7-4.9-17.4c-0.7-6.7-1.1-14.2-1.1-22.3C612.4,510.2,612.8,502.8,613.5,496z
		 M634.3,536.5c0.3,5,1,9.1,2.1,12.2c1,3.1,2.5,5.4,4.5,6.8c1.9,1.4,4.5,2.2,7.7,2.2c3.2,0,5.7-0.7,7.7-2.2c1.9-1.4,3.4-3.7,4.5-6.8
		s1.7-7.2,2.1-12.2c0.3-5,0.5-11.1,0.5-18.2s-0.2-13.2-0.5-18.2c-0.3-5-1-9-2.1-12.2c-1-3.2-2.5-5.5-4.5-6.9
		c-1.9-1.4-4.5-2.2-7.7-2.2c-3.2,0-5.7,0.7-7.7,2.2c-1.9,1.4-3.4,3.7-4.5,6.9c-1,3.2-1.7,7.2-2.1,12.2c-0.3,5-0.5,11-0.5,18.2
		S634,531.5,634.3,536.5z"/>
	<path d="M734.9,514.4c-0.2-1.9-0.7-3.6-1.3-5.1c-0.6-1.5-1.6-2.8-2.8-3.7c-1.2-0.9-2.8-1.4-4.8-1.4c-2.5,0-4.5,0.6-6.1,1.7
		c-1.6,1.1-2.8,2.8-3.6,5.1c-0.8,2.2-1.3,5.1-1.6,8.5c-0.3,3.4-0.4,7.5-0.4,12.1c0,5,0.1,9.2,0.4,12.7c0.3,3.5,0.8,6.4,1.6,8.7
		c0.8,2.3,1.9,3.9,3.3,5c1.4,1,3.3,1.6,5.6,1.6c3.5,0,6-1.5,7.6-4.5c1.6-3,2.4-7.7,2.4-14.3H755c0,10.5-2.4,18.5-7.1,24
		c-4.7,5.5-12.5,8.3-23.4,8.3c-5.2,0-9.6-0.6-13.5-1.9c-3.8-1.2-7-3.5-9.5-6.7c-2.5-3.2-4.4-7.5-5.7-12.9
		c-1.3-5.4-1.9-12.1-1.9-20.2c0-8.2,0.8-15.1,2.4-20.5c1.6-5.4,3.8-9.7,6.7-12.9c2.9-3.2,6.3-5.5,10.3-6.8c4-1.3,8.3-1.9,13.1-1.9
		c9.5,0,16.7,2.8,21.5,8.3c4.8,5.6,7.2,13.1,7.2,22.6h-19.6C735.3,518.2,735.2,516.3,734.9,514.4z"/>
	<path d="M790.7,468.4v22.9h11.9v14h-11.9v43.3c0,3.2,0.5,5.4,1.4,6.8c0.9,1.3,2.9,2,5.9,2c0.8,0,1.6,0,2.4-0.1
		c0.8,0,1.5-0.1,2.2-0.2v14.3c-2.3,0-4.5,0.1-6.6,0.2c-2.1,0.1-4.4,0.2-6.8,0.2c-4,0-7.2-0.3-9.7-0.8c-2.5-0.5-4.5-1.6-5.8-3.3
		c-1.3-1.6-2.3-3.8-2.8-6.5c-0.5-2.7-0.7-6-0.7-10.1v-45.8h-10.4v-14h10.4v-22.9H790.7z"/>
	<path d="M808.7,513.2c1.1-5.3,2.9-9.6,5.4-13.2c2.5-3.5,5.7-6.2,9.7-8c4-1.8,9-2.8,14.8-2.8c6.1-0.1,11.3,0.7,15.3,2.5
		c4.1,1.7,7.3,4.4,9.7,8c2.4,3.6,4.1,8,5.1,13.2c1,5.3,1.5,11.4,1.5,18.5c0,6.8-0.5,12.9-1.6,18.2c-1.1,5.3-2.9,9.6-5.4,13.2
		c-2.5,3.5-5.7,6.1-9.7,7.8c-4,1.7-9,2.5-14.8,2.5c-6.2,0.1-11.3-0.7-15.3-2.3c-4.1-1.6-7.3-4.2-9.7-7.7c-2.4-3.5-4.1-7.9-5.1-13.2
		c-1-5.3-1.5-11.4-1.5-18.4C807,524.5,807.6,518.4,808.7,513.2z M827.9,542.6c0.2,3.5,0.7,6.4,1.4,8.9c0.7,2.5,1.9,4.4,3.3,5.8
		c1.5,1.4,3.5,2.1,6,2.1c4.2,0,7-2.2,8.6-6.5c1.6-4.4,2.4-11.6,2.4-21.6c0-10-0.8-17.2-2.4-21.6c-1.6-4.4-4.5-6.5-8.6-6.5
		c-2.5,0-4.5,0.7-6,2.1c-1.5,1.4-2.6,3.3-3.3,5.8c-0.7,2.5-1.2,5.5-1.4,8.9c-0.2,3.5-0.3,7.2-0.3,11.3
		C827.6,535.4,827.7,539.2,827.9,542.6z"/>
	<path d="M901.7,465.1v33.6h0.3c2.2-3.2,4.6-5.6,7.4-7.1c2.7-1.6,6-2.4,9.9-2.4c8.4,0,14.6,3.3,18.6,9.9c4,6.6,6,17.3,6,32.2
		s-2,25.5-6,32c-4,6.4-10.2,9.7-18.6,9.7c-4.2,0-7.7-0.7-10.5-2.2c-2.8-1.5-5.4-4.1-7.7-7.9h-0.3v8.5h-19.6V465.1H901.7z
		 M903.7,551.1c1.3,4.4,4.3,6.6,8.9,6.6c4.5,0,7.4-2.2,8.7-6.6c1.3-4.4,2-11,2-19.7c0-8.7-0.7-15.3-2-19.7c-1.3-4.4-4.2-6.6-8.7-6.6
		c-4.6,0-7.5,2.2-8.9,6.6c-1.3,4.4-2,11-2,19.7C901.7,540.1,902.4,546.6,903.7,551.1z"/>
	<path d="M973.1,540.9c0,2.4,0.2,4.7,0.5,6.9c0.3,2.2,0.9,4.2,1.7,6c0.8,1.7,1.8,3.1,3.1,4.2c1.3,1,2.9,1.6,4.8,1.6
		c3.5,0,6-1.2,7.6-3.7c1.6-2.5,2.7-6.2,3.3-11.3h18.5c-0.4,9.3-2.9,16.4-7.4,21.3c-4.6,4.9-11.8,7.3-21.6,7.3
		c-7.4,0-13.2-1.2-17.4-3.7s-7.2-5.8-9.2-9.8c-2-4.1-3.2-8.6-3.6-13.7c-0.4-5.1-0.7-10.1-0.7-15.2c0-5.4,0.4-10.5,1.1-15.5
		c0.7-5,2.2-9.4,4.5-13.2c2.2-3.9,5.4-6.9,9.6-9.2c4.2-2.3,9.7-3.4,16.7-3.4c6,0,10.8,1,14.7,2.9c3.8,1.9,6.8,4.7,9,8.2
		c2.2,3.5,3.7,7.8,4.5,12.8c0.8,5,1.2,10.6,1.2,16.7v4.6h-40.6V540.9z M993.5,514.1c-0.3-2.3-0.8-4.3-1.6-6
		c-0.7-1.6-1.8-2.9-3.1-3.7c-1.3-0.8-3.1-1.3-5.1-1.3s-3.8,0.5-5.1,1.4c-1.3,0.9-2.4,2.2-3.2,3.7c-0.8,1.5-1.4,3.3-1.7,5.1
		c-0.3,1.9-0.5,3.8-0.5,5.7v3.1h21C994,519.2,993.8,516.5,993.5,514.1z"/>
	<path d="M1044.1,491.3V502h0.3c2.1-3.9,4.6-7,7.6-9.3c3-2.3,6.6-3.5,10.9-3.5c0.6,0,1.2,0,1.9,0.1c0.6,0.1,1.3,0.1,1.9,0.2v19.6
		c-1.1-0.1-2.2-0.2-3.2-0.2c-1,0-2.1-0.1-3.2-0.1c-1.8,0-3.6,0.2-5.4,0.7c-1.8,0.5-3.4,1.3-4.9,2.5c-1.5,1.1-2.7,2.6-3.6,4.5
		c-0.9,1.8-1.3,4.1-1.3,6.8v48.1h-20.5v-80.1H1044.1z"/>
	<path d="M1127.3,484.8l-2.2,24h0.3c2-2.8,4.6-4.8,7.7-6c3.2-1.2,7-1.9,11.6-1.9c5.1,0,9.2,1,12.6,2.9c3.3,1.9,6,4.5,7.9,7.7
		c1.9,3.2,3.3,6.8,4.1,10.8c0.8,4,1.2,8.1,1.2,12.3c0,5.9-0.5,11.2-1.5,15.9c-1,4.8-2.8,8.9-5.3,12.3c-2.5,3.4-6,6-10.3,7.7
		c-4.4,1.7-9.9,2.6-16.7,2.6c-6.6,0-12-0.9-16.1-2.7c-4.1-1.8-7.3-4.1-9.4-7.1c-2.2-2.9-3.6-6.1-4.4-9.5c-0.7-3.4-1.1-6.6-1.1-9.6
		v-2.8h20.5c0,1.8,0.1,3.7,0.3,5.7c0.2,2,0.7,3.8,1.4,5.6c0.7,1.7,1.8,3.2,3.2,4.3c1.4,1.1,3.2,1.7,5.5,1.7c4.5,0,7.7-1.7,9.6-5.1
		c1.9-3.4,2.9-8.6,2.9-15.4c0-4.4-0.2-8-0.6-10.9c-0.4-2.9-1.1-5.2-2-6.8c-0.9-1.7-2.2-2.9-3.8-3.6c-1.6-0.7-3.6-1-6-1
		c-3.1,0-5.4,0.9-7.1,2.6c-1.6,1.7-2.7,4.1-3,7.1h-19.2l3.9-57.3h54.9v16.7H1127.3z"/>
	<path d="M1206.1,468.4v22.9h11.9v14h-11.9v43.3c0,3.2,0.5,5.4,1.4,6.8c0.9,1.3,2.9,2,5.9,2c0.8,0,1.6,0,2.4-0.1
		c0.8,0,1.5-0.1,2.2-0.2v14.3c-2.3,0-4.5,0.1-6.6,0.2c-2.1,0.1-4.4,0.2-6.8,0.2c-4,0-7.2-0.3-9.7-0.8c-2.5-0.5-4.5-1.6-5.8-3.3
		c-1.3-1.6-2.3-3.8-2.8-6.5c-0.5-2.7-0.7-6-0.7-10.1v-45.8h-10.4v-14h10.4v-22.9H1206.1z"/>
	<path d="M1245.7,465.1v34.4h0.3c4-6.8,10.5-10.3,19.5-10.3c6.5,0,11.6,1.8,15.1,5.4c3.5,3.6,5.3,9.4,5.3,17.4v59.4h-20.5v-55.2
		c0-4.2-0.7-7.1-2.1-8.7c-1.4-1.6-3.6-2.5-6.7-2.5c-7.2,0-10.9,4.4-10.9,13.2v53.1h-20.5V465.1H1245.7z"/>
	<path d="M1320.4,567.5c0,3.7-0.3,7.2-0.8,10.5c-0.5,3.3-1.6,6.2-3.1,8.6c-1.5,2.4-3.5,4.4-6,6c-2.5,1.5-5.8,2.5-9.7,2.9v-10.4
		c2.6-0.5,4.5-1.9,5.8-4.2c1.3-2.3,1.9-4.8,1.9-7.6v-1.9h-7.7v-23.2h19.6V567.5z"/>
	<path d="M1361.3,571.4c0-4.7,0.5-9,1.4-13.1c0.9-4.1,2.4-7.9,4.3-11.6c1.9-3.7,4.4-7.3,7.3-10.8c2.9-3.5,6.3-7.1,10.2-10.6l8.6-8
		c2.4-2.1,4.3-4,5.7-5.8c1.4-1.8,2.6-3.6,3.3-5.4c0.8-1.8,1.3-3.7,1.6-5.8c0.2-2.1,0.4-4.5,0.4-7.1c0-8.7-3.5-13.1-10.4-13.1
		c-2.7,0-4.8,0.5-6.3,1.6c-1.5,1.1-2.7,2.6-3.6,4.5c-0.8,1.9-1.4,4.1-1.6,6.5c-0.2,2.5-0.4,5.1-0.4,7.9h-20.5v-4
		c0-9.8,2.6-17.4,7.9-22.6c5.3-5.3,13.5-7.9,24.9-7.9c10.7,0,18.6,2.5,23.8,7.4c5.2,5,7.7,12.1,7.7,21.3c0,3.4-0.3,6.5-0.9,9.4
		c-0.6,2.9-1.5,5.7-2.8,8.4c-1.3,2.7-3,5.3-5.1,7.8s-4.6,5.1-7.6,7.8l-11.9,11c-3.2,2.9-5.7,5.7-7.4,8.4c-1.8,2.7-2.9,5.1-3.4,7.1
		h39.7v16.7H1361.3z"/>
	<path d="M1433.5,501.1c0.5-6.7,1.8-12.7,4-17.9c2.2-5.2,5.5-9.4,9.9-12.5c4.4-3.1,10.5-4.7,18.4-4.7c6.4,0,11.8,0.9,16,2.8
		c4.2,1.8,7.6,4.8,10.1,8.9c2.5,4.1,4.3,9.4,5.4,15.8c1,6.5,1.6,14.4,1.6,23.7c0,7.3-0.2,14.4-0.7,21.1c-0.5,6.7-1.8,12.7-4,17.9
		c-2.2,5.2-5.5,9.3-9.9,12.3c-4.4,3-10.5,4.5-18.4,4.5c-6.3,0-11.7-0.8-15.9-2.5c-4.3-1.7-7.7-4.6-10.2-8.6
		c-2.5-4.1-4.3-9.3-5.4-15.8c-1-6.5-1.6-14.4-1.6-23.7C1432.8,514.9,1433,507.9,1433.5,501.1z M1454.7,543.2c0.3,4.2,1,7.5,1.9,10
		c0.9,2.4,2.1,4.1,3.6,5c1.5,0.9,3.4,1.3,5.7,1.3c2.4,0,4.3-0.6,5.8-1.7c1.5-1.1,2.7-3.1,3.5-5.8c0.8-2.7,1.4-6.4,1.8-10.9
		c0.3-4.6,0.5-10.2,0.5-17v-11.5c0-6.6-0.2-12.1-0.5-16.3c-0.3-4.2-1-7.5-1.9-10c-0.9-2.4-2.1-4.1-3.6-5s-3.4-1.3-5.7-1.3
		c-2.4,0-4.3,0.6-5.8,1.7c-1.5,1.1-2.7,3.1-3.5,5.8c-0.8,2.7-1.4,6.4-1.8,10.9c-0.3,4.6-0.5,10.2-0.5,17v11.5
		C1454.2,533.5,1454.4,538.9,1454.7,543.2z"/>
	<path d="M1528.6,497h-21v-14h1.9c7.1,0,12.8-1.3,16.9-4c4.1-2.7,6.7-7,7.8-12.9h15.8v105.4h-21.4V497z"/>
	<path d="M1617.1,483.3c-1.4-2.2-3.9-3.3-7.5-3.3c-2.8,0-5,0.7-6.8,2c-1.7,1.3-3.1,3.2-4,5.6c-0.9,2.4-1.6,5.2-1.9,8.5
		c-0.3,3.3-0.4,6.8-0.4,10.7v5.2h0.3c1.8-2.8,4.3-5,7.7-6.6c3.3-1.6,7.4-2.5,12.1-2.5c4.7,0,8.6,0.8,11.9,2.5s5.9,3.9,8,6.8
		c2,2.9,3.5,6.4,4.5,10.4c0.9,4,1.4,8.4,1.4,13.2c0,12.2-2.7,21.5-8.1,27.8c-5.4,6.3-14.1,9.4-26,9.4c-7.3,0-13.2-1.3-17.6-3.9
		c-4.4-2.6-7.7-6.1-10-10.6c-2.3-4.5-3.8-9.7-4.5-15.7c-0.7-6-1-12.2-1-18.6c0-7.4,0.2-14.7,0.7-21.7c0.4-7,1.8-13.2,4-18.6
		c2.2-5.4,5.7-9.7,10.5-13c4.8-3.3,11.5-4.9,20.2-4.9c3.8,0,7.4,0.4,10.9,1.3c3.5,0.9,6.6,2.4,9.3,4.5c2.7,2.1,4.8,4.8,6.5,8.3
		c1.6,3.4,2.5,7.7,2.6,12.7h-20.5C1619.2,488.6,1618.5,485.5,1617.1,483.3z M1598,547c0.3,2.6,0.9,4.8,1.7,6.6
		c0.8,1.8,2,3.3,3.6,4.3c1.5,1,3.5,1.6,6,1.6c2.6,0,4.6-0.5,6.2-1.6c1.5-1,2.7-2.5,3.5-4.4c0.8-1.9,1.3-4.1,1.6-6.6
		c0.2-2.5,0.4-5.3,0.4-8.3c0-7.1-0.9-12.3-2.7-15.3c-1.8-3.1-4.8-4.6-8.9-4.6c-4.3,0-7.3,1.5-9.1,4.6c-1.8,3.1-2.7,8.2-2.7,15.3
		C1597.5,541.6,1597.7,544.4,1598,547z"/>
</g>
<g enable-background="new    ">
	<path fill="#00B9F2" d="M646.9,613.9l15.2,75h0.3l15.3-75h31.7v106.2h-19.6v-84.8h-0.3l-18.9,84.8h-16.7L635,635.3h-0.3v84.8h-19.6
		V613.9H646.9z"/>
	<path fill="#00B9F2" d="M741.7,689.7c0,2.4,0.2,4.7,0.5,6.9c0.3,2.2,0.9,4.2,1.7,6c0.8,1.7,1.8,3.1,3.1,4.2c1.3,1,2.9,1.6,4.8,1.6
		c3.5,0,6-1.2,7.6-3.7c1.6-2.5,2.7-6.2,3.3-11.3h18.5c-0.4,9.3-2.9,16.4-7.4,21.3c-4.6,4.9-11.8,7.3-21.6,7.3
		c-7.4,0-13.2-1.2-17.4-3.7s-7.2-5.8-9.2-9.8c-2-4.1-3.2-8.6-3.6-13.7c-0.4-5.1-0.7-10.1-0.7-15.2c0-5.4,0.4-10.5,1.1-15.5
		c0.7-5,2.2-9.4,4.5-13.2c2.2-3.9,5.4-6.9,9.6-9.2c4.2-2.3,9.7-3.4,16.7-3.4c6,0,10.8,1,14.7,2.9c3.8,1.9,6.8,4.7,9,8.2
		c2.2,3.5,3.7,7.8,4.5,12.8c0.8,5,1.2,10.6,1.2,16.7v4.6h-40.6V689.7z M762.1,663c-0.3-2.3-0.8-4.3-1.6-6c-0.7-1.6-1.8-2.9-3.1-3.7
		c-1.3-0.8-3.1-1.3-5.1-1.3s-3.8,0.5-5.1,1.4c-1.3,0.9-2.4,2.2-3.2,3.7c-0.8,1.5-1.4,3.2-1.7,5.1c-0.3,1.9-0.5,3.8-0.5,5.7v3.1h21
		C762.6,668,762.4,665.3,762.1,663z"/>
	<path fill="#00B9F2" d="M833.8,711.7c-2.3,3.8-4.8,6.4-7.7,7.9c-2.8,1.5-6.3,2.2-10.5,2.2c-8.4,0-14.6-3.2-18.6-9.7
		c-4-6.4-6-17.1-6-32c0-14.9,2-25.6,6-32.2c4-6.6,10.2-9.9,18.6-9.9c3.9,0,7.2,0.8,9.9,2.4c2.7,1.6,5.2,4,7.4,7.1h0.3v-33.6h20.5
		v106.2h-19.6v-8.5H833.8z M813.7,699.9c1.3,4.4,4.2,6.6,8.7,6.6c4.6,0,7.5-2.2,8.9-6.6c1.3-4.4,2-11,2-19.7c0-8.7-0.7-15.3-2-19.7
		c-1.3-4.4-4.3-6.6-8.9-6.6c-4.5,0-7.4,2.2-8.7,6.6c-1.3,4.4-2,11-2,19.7C811.7,688.9,812.3,695.4,813.7,699.9z"/>
	<path fill="#00B9F2" d="M888.7,612.7v17.6h-20.5v-17.6H888.7z M888.7,640.1v80.1h-20.5v-80.1H888.7z"/>
	<path fill="#00B9F2" d="M903,662.7c0-4.7,0.7-8.6,2.2-11.7c1.5-3.1,3.5-5.7,6-7.6s5.5-3.3,8.9-4.2c3.4-0.8,7.1-1.3,10.9-1.3
		c6.2,0,11.1,0.6,14.9,1.8c3.8,1.2,6.7,2.9,8.8,5.1c2.1,2.2,3.5,4.8,4.2,7.8c0.7,3,1.1,6.3,1.1,9.9v42.1c0,3.8,0.2,6.7,0.5,8.8
		c0.3,2.1,1,4.3,2,6.7h-19.6c-0.7-1.3-1.2-2.7-1.6-4.1c-0.3-1.4-0.7-2.9-1-4.2h-0.3c-2.4,4.2-5.1,6.9-8.3,8.1s-7.2,1.9-12.1,1.9
		c-3.6,0-6.6-0.6-9.1-1.9c-2.5-1.2-4.5-3-6-5.1c-1.5-2.2-2.6-4.6-3.3-7.4c-0.7-2.7-1-5.4-1-8.1c0-3.8,0.4-7,1.2-9.7
		c0.8-2.7,2-5.1,3.6-7s3.7-3.5,6.2-4.8c2.5-1.3,5.6-2.4,9.2-3.4l11.6-3.1c3.1-0.8,5.2-1.9,6.4-3.3c1.2-1.4,1.8-3.4,1.8-6.1
		c0-3.1-0.7-5.5-2.2-7.2c-1.4-1.7-3.9-2.6-7.4-2.6c-3.2,0-5.6,0.9-7.1,2.8c-1.6,1.9-2.4,4.4-2.4,7.6v2.2H903V662.7z M936.1,682.7
		c-1.6,0.6-3,1.1-4.3,1.4c-4.2,0.9-7.1,2.4-8.9,4.5c-1.8,2.1-2.7,4.9-2.7,8.5c0,3.1,0.6,5.7,1.8,7.9c1.2,2.2,3.2,3.3,6,3.3
		c1.4,0,2.8-0.2,4.3-0.7c1.5-0.4,2.9-1.2,4.1-2.2c1.2-1,2.3-2.3,3.1-3.9c0.8-1.6,1.2-3.5,1.2-5.7v-15.8
		C939.1,681.2,937.6,682.1,936.1,682.7z"/>
	<path fill="#00B9F2" d="M996,613.9v106.2h-20.5V613.9H996z"/>
	<path fill="#00B9F2" d="M1010.3,662.7c0-4.7,0.7-8.6,2.2-11.7s3.5-5.7,6-7.6c2.5-1.9,5.5-3.3,8.9-4.2c3.4-0.8,7.1-1.3,10.9-1.3
		c6.2,0,11.1,0.6,14.9,1.8c3.8,1.2,6.7,2.9,8.8,5.1c2.1,2.2,3.5,4.8,4.2,7.8c0.7,3,1.1,6.3,1.1,9.9v42.1c0,3.8,0.2,6.7,0.5,8.8
		c0.3,2.1,1,4.3,2,6.7h-19.6c-0.7-1.3-1.2-2.7-1.6-4.1c-0.3-1.4-0.7-2.9-1-4.2h-0.3c-2.4,4.2-5.1,6.9-8.3,8.1s-7.2,1.9-12.1,1.9
		c-3.6,0-6.6-0.6-9.1-1.9c-2.5-1.2-4.5-3-6-5.1c-1.5-2.2-2.6-4.6-3.3-7.4c-0.7-2.7-1-5.4-1-8.1c0-3.8,0.4-7,1.2-9.7
		c0.8-2.7,2-5.1,3.6-7s3.7-3.5,6.2-4.8c2.5-1.3,5.6-2.4,9.2-3.4l11.6-3.1c3.1-0.8,5.2-1.9,6.4-3.3c1.2-1.4,1.8-3.4,1.8-6.1
		c0-3.1-0.7-5.5-2.2-7.2c-1.4-1.7-3.9-2.6-7.4-2.6c-3.2,0-5.6,0.9-7.1,2.8c-1.6,1.9-2.4,4.4-2.4,7.6v2.2h-18.5V662.7z M1043.3,682.7
		c-1.6,0.6-3,1.1-4.3,1.4c-4.2,0.9-7.1,2.4-8.9,4.5c-1.8,2.1-2.7,4.9-2.7,8.5c0,3.1,0.6,5.7,1.8,7.9c1.2,2.2,3.2,3.3,6,3.3
		c1.4,0,2.8-0.2,4.3-0.7s2.9-1.2,4.1-2.2c1.2-1,2.3-2.3,3.1-3.9c0.8-1.6,1.2-3.5,1.2-5.7v-15.8
		C1046.4,681.2,1044.9,682.1,1043.3,682.7z"/>
	<path fill="#00B9F2" d="M1102.6,613.9v33.6h0.3c2.2-3.2,4.6-5.6,7.4-7.1c2.7-1.6,6-2.4,9.9-2.4c8.4,0,14.6,3.3,18.6,9.9
		c4,6.6,6,17.3,6,32.2c0,14.9-2,25.5-6,32c-4,6.5-10.2,9.7-18.6,9.7c-4.2,0-7.7-0.7-10.5-2.2c-2.8-1.5-5.4-4.1-7.7-7.9h-0.3v8.5
		H1082V613.9H1102.6z M1104.6,699.9c1.3,4.4,4.3,6.6,8.9,6.6c4.5,0,7.4-2.2,8.7-6.6c1.3-4.4,2-11,2-19.7c0-8.7-0.7-15.3-2-19.7
		c-1.3-4.4-4.2-6.6-8.7-6.6c-4.6,0-7.5,2.2-8.9,6.6c-1.3,4.4-2,11-2,19.7C1102.6,688.9,1103.2,695.4,1104.6,699.9z"/>
	<path fill="#00B9F2" d="M1198.1,685.9h-42v-17.6h42V685.9z"/>
	<path fill="#00B9F2" d="M1249.6,613.9c5.5,0,10,0.9,13.8,2.8c3.7,1.8,6.7,4.2,9,7.2c2.3,3,3.9,6.4,4.9,10.2c1,3.8,1.5,7.7,1.5,11.7
		c0,5.5-0.8,10.2-2.5,14.3c-1.6,4.1-3.9,7.4-6.8,10c-2.9,2.6-6.5,4.5-10.6,5.8c-4.2,1.3-8.8,1.9-13.8,1.9h-11.5v42.4h-21.4V613.9
		H1249.6z M1243,662c4.3,0,7.7-1.3,10.3-3.9c2.6-2.6,3.9-6.6,3.9-12.1c0-5.4-1.1-9.4-3.4-12.2c-2.3-2.8-6.1-4.2-11.5-4.2h-8.9V662
		H1243z"/>
	<path fill="#00B9F2" d="M1308.4,640.1v10.7h0.3c2.1-3.9,4.6-7,7.6-9.3c3-2.3,6.6-3.5,10.9-3.5c0.6,0,1.2,0,1.9,0.1
		c0.6,0.1,1.3,0.1,1.9,0.2V658c-1.1-0.1-2.2-0.2-3.2-0.2c-1,0-2.1-0.1-3.2-0.1c-1.8,0-3.6,0.2-5.4,0.7c-1.8,0.5-3.4,1.3-4.9,2.5
		c-1.5,1.1-2.7,2.6-3.6,4.5c-0.9,1.8-1.3,4.1-1.3,6.8v48.1h-20.5v-80.1H1308.4z"/>
	<path fill="#00B9F2" d="M1338.1,662.7c0-4.7,0.7-8.6,2.2-11.7s3.5-5.7,6-7.6c2.5-1.9,5.5-3.3,8.9-4.2c3.4-0.8,7.1-1.3,10.9-1.3
		c6.2,0,11.1,0.6,14.9,1.8c3.8,1.2,6.7,2.9,8.8,5.1c2.1,2.2,3.5,4.8,4.2,7.8c0.7,3,1.1,6.3,1.1,9.9v42.1c0,3.8,0.2,6.7,0.5,8.8
		c0.3,2.1,1,4.3,2,6.7h-19.6c-0.7-1.3-1.2-2.7-1.6-4.1c-0.3-1.4-0.7-2.9-1-4.2h-0.3c-2.4,4.2-5.1,6.9-8.3,8.1s-7.2,1.9-12.1,1.9
		c-3.6,0-6.6-0.6-9.1-1.9c-2.5-1.2-4.5-3-6-5.1c-1.5-2.2-2.6-4.6-3.3-7.4c-0.7-2.7-1-5.4-1-8.1c0-3.8,0.4-7,1.2-9.7
		c0.8-2.7,2-5.1,3.6-7s3.7-3.5,6.2-4.8c2.5-1.3,5.6-2.4,9.2-3.4l11.6-3.1c3.1-0.8,5.2-1.9,6.4-3.3c1.2-1.4,1.8-3.4,1.8-6.1
		c0-3.1-0.7-5.5-2.2-7.2c-1.4-1.7-3.9-2.6-7.4-2.6c-3.2,0-5.6,0.9-7.1,2.8c-1.6,1.9-2.4,4.4-2.4,7.6v2.2h-18.5V662.7z M1371.2,682.7
		c-1.6,0.6-3,1.1-4.3,1.4c-4.2,0.9-7.1,2.4-8.9,4.5c-1.8,2.1-2.7,4.9-2.7,8.5c0,3.1,0.6,5.7,1.8,7.9c1.2,2.2,3.2,3.3,6,3.3
		c1.4,0,2.8-0.2,4.3-0.7s2.9-1.2,4.1-2.2c1.2-1,2.3-2.3,3.1-3.9c0.8-1.6,1.2-3.5,1.2-5.7v-15.8
		C1374.2,681.2,1372.8,682.1,1371.2,682.7z"/>
	<path fill="#00B9F2" d="M1450.6,711.7c-2.3,3.8-4.8,6.4-7.7,7.9c-2.8,1.5-6.3,2.2-10.5,2.2c-8.4,0-14.6-3.2-18.6-9.7
		c-4-6.4-6-17.1-6-32c0-14.9,2-25.6,6-32.2c4-6.6,10.2-9.9,18.6-9.9c3.9,0,7.2,0.8,9.9,2.4c2.7,1.6,5.2,4,7.4,7.1h0.3v-33.6h20.5
		v106.2h-19.6v-8.5H1450.6z M1430.5,699.9c1.3,4.4,4.2,6.6,8.7,6.6c4.6,0,7.5-2.2,8.9-6.6c1.3-4.4,2-11,2-19.7
		c0-8.7-0.7-15.3-2-19.7c-1.3-4.4-4.3-6.6-8.9-6.6c-4.5,0-7.4,2.2-8.7,6.6c-1.3,4.4-2,11-2,19.7
		C1428.5,688.9,1429.1,695.4,1430.5,699.9z"/>
	<path fill="#00B9F2" d="M1483.2,662c1.1-5.3,2.9-9.6,5.4-13.2c2.5-3.5,5.7-6.2,9.7-8c4-1.8,9-2.8,14.8-2.8
		c6.2-0.1,11.3,0.7,15.3,2.5c4.1,1.7,7.3,4.4,9.7,8c2.4,3.6,4.1,8,5.1,13.2c1,5.3,1.5,11.4,1.5,18.5c0,6.8-0.5,12.9-1.6,18.2
		c-1.1,5.3-2.9,9.6-5.4,13.2c-2.5,3.5-5.7,6.1-9.7,7.8c-4,1.7-9,2.5-14.8,2.5c-6.2,0.1-11.3-0.7-15.3-2.3c-4.1-1.6-7.3-4.2-9.7-7.7
		c-2.4-3.5-4.1-7.9-5.1-13.2c-1-5.3-1.5-11.4-1.5-18.4C1481.6,673.3,1482.1,667.2,1483.2,662z M1502.4,691.4
		c0.2,3.5,0.7,6.5,1.4,8.9c0.7,2.5,1.9,4.4,3.3,5.8c1.5,1.4,3.5,2.1,6,2.1c4.2,0,7-2.2,8.6-6.5c1.6-4.4,2.4-11.6,2.4-21.6
		c0-10-0.8-17.2-2.4-21.6c-1.6-4.4-4.5-6.5-8.6-6.5c-2.5,0-4.5,0.7-6,2.1c-1.5,1.4-2.6,3.3-3.3,5.8c-0.7,2.5-1.2,5.5-1.4,8.9
		c-0.2,3.5-0.3,7.2-0.3,11.3C1502.1,684.2,1502.2,688,1502.4,691.4z"/>
</g>
<g enable-background="new    ">
	<path d="M646.9,762.7l15.2,75h0.3l15.3-75h31.7V869h-19.6v-84.8h-0.3L670.6,869h-16.7L635,784.2h-0.3V869h-19.6V762.7H646.9z"/>
	<path d="M724,811.5c0-4.7,0.7-8.6,2.2-11.7c1.5-3.1,3.5-5.7,6-7.6s5.5-3.3,8.9-4.2c3.4-0.8,7.1-1.3,10.9-1.3
		c6.2,0,11.1,0.6,14.9,1.8c3.8,1.2,6.7,2.9,8.8,5.1c2.1,2.2,3.5,4.8,4.2,7.8c0.7,3,1.1,6.3,1.1,9.9v42.1c0,3.8,0.2,6.7,0.5,8.8
		c0.3,2.1,1,4.3,2,6.7H764c-0.7-1.3-1.2-2.7-1.6-4.1c-0.3-1.4-0.7-2.9-1-4.2h-0.3c-2.4,4.2-5.1,6.9-8.3,8.1s-7.2,1.9-12.1,1.9
		c-3.6,0-6.6-0.6-9.1-1.9c-2.5-1.2-4.5-3-6-5.1c-1.5-2.2-2.6-4.6-3.3-7.4c-0.7-2.7-1-5.4-1-8.1c0-3.8,0.4-7,1.2-9.7
		c0.8-2.7,2-5.1,3.6-7s3.7-3.5,6.2-4.8c2.5-1.3,5.6-2.4,9.2-3.4l11.6-3.1c3.1-0.8,5.2-1.9,6.4-3.3c1.2-1.4,1.8-3.4,1.8-6.1
		c0-3.1-0.7-5.5-2.2-7.2c-1.4-1.7-3.9-2.6-7.4-2.6c-3.2,0-5.6,0.9-7.1,2.8c-1.6,1.9-2.4,4.4-2.4,7.6v2.2H724V811.5z M757,831.6
		c-1.6,0.6-3,1.1-4.3,1.4c-4.2,0.9-7.1,2.4-8.9,4.5c-1.8,2.1-2.7,4.9-2.7,8.5c0,3.1,0.6,5.7,1.8,7.9c1.2,2.2,3.2,3.3,6,3.3
		c1.4,0,2.8-0.2,4.3-0.7c1.5-0.4,2.9-1.2,4.1-2.2c1.2-1,2.3-2.3,3.1-3.9c0.8-1.6,1.2-3.5,1.2-5.7V829
		C760.1,830.1,758.6,830.9,757,831.6z"/>
	<path d="M836.5,860.5c-2.3,3.8-4.8,6.4-7.7,7.9c-2.8,1.5-6.3,2.2-10.5,2.2c-8.4,0-14.6-3.2-18.6-9.7c-4-6.4-6-17.1-6-32
		c0-14.9,2-25.6,6-32.2c4-6.6,10.2-9.9,18.6-9.9c3.9,0,7.2,0.8,9.9,2.4c2.7,1.6,5.2,4,7.4,7.1h0.3v-33.6h20.5V869h-19.6v-8.5H836.5z
		 M816.3,848.7c1.3,4.4,4.2,6.6,8.7,6.6c4.6,0,7.5-2.2,8.9-6.6c1.3-4.4,2-11,2-19.7c0-8.7-0.7-15.3-2-19.7c-1.3-4.4-4.3-6.6-8.9-6.6
		c-4.5,0-7.4,2.2-8.7,6.6c-1.3,4.4-2,11-2,19.7C814.3,837.7,815,844.3,816.3,848.7z"/>
	<path d="M889.8,788.9v10.7h0.3c2.1-3.9,4.6-7,7.6-9.3c3-2.3,6.6-3.5,10.9-3.5c0.6,0,1.2,0,1.9,0.1c0.6,0.1,1.3,0.1,1.9,0.2v19.6
		c-1.1-0.1-2.2-0.2-3.2-0.2c-1,0-2.1-0.1-3.2-0.1c-1.8,0-3.6,0.2-5.4,0.7c-1.8,0.5-3.4,1.3-4.9,2.5c-1.5,1.1-2.7,2.6-3.6,4.5
		c-0.9,1.8-1.3,4.1-1.3,6.8V869h-20.5v-80.1H889.8z"/>
	<path d="M941,761.5v17.6h-20.5v-17.6H941z M941,788.9V869h-20.5v-80.1H941z"/>
	<path d="M996.2,860.5c-2.3,3.8-4.8,6.4-7.7,7.9c-2.8,1.5-6.3,2.2-10.5,2.2c-8.4,0-14.6-3.2-18.6-9.7c-4-6.4-6-17.1-6-32
		c0-14.9,2-25.6,6-32.2c4-6.6,10.2-9.9,18.6-9.9c3.9,0,7.2,0.8,9.9,2.4c2.7,1.6,5.2,4,7.4,7.1h0.3v-33.6h20.5V869h-19.6v-8.5H996.2z
		 M976,848.7c1.3,4.4,4.2,6.6,8.7,6.6c4.6,0,7.5-2.2,8.9-6.6c1.3-4.4,2-11,2-19.7c0-8.7-0.7-15.3-2-19.7c-1.3-4.4-4.3-6.6-8.9-6.6
		c-4.5,0-7.4,2.2-8.7,6.6c-1.3,4.4-2,11-2,19.7C974,837.7,974.7,844.3,976,848.7z"/>
	<path d="M1094.8,779.2c-2.2,5.3-3.9,10.6-5.3,16s-2.3,10.8-2.9,16.4c-0.6,5.6-0.9,11.6-0.9,17.9c0,6.3,0.3,12.3,0.9,17.9
		c0.6,5.6,1.6,11,2.9,16.2c1.3,5.2,3.1,10.5,5.3,15.8c2.2,5.3,4.8,10.8,7.9,16.4h-15.8c-7.4-11.7-12.8-23.1-16-34.1
		c-3.2-11-4.8-21.8-4.8-32.3c0-10.5,1.6-21.4,4.8-32.5c3.2-11.2,8.6-22.6,16-34.3h15.8C1099.6,768.4,1097,773.9,1094.8,779.2z"/>
	<path d="M1127.4,838.9c0,2.5,0.2,4.7,0.6,6.8c0.4,2,1.1,3.7,2.2,5.1c1.1,1.4,2.6,2.5,4.4,3.3c1.8,0.8,4.1,1.2,6.9,1.2
		c3.3,0,6.2-1.1,8.9-3.2c2.6-2.1,3.9-5.4,3.9-9.9c0-2.4-0.3-4.4-1-6.2c-0.6-1.7-1.7-3.3-3.2-4.7c-1.5-1.4-3.4-2.7-5.9-3.8
		c-2.4-1.1-5.4-2.3-9-3.5c-4.8-1.6-8.9-3.3-12.4-5.2c-3.5-1.9-6.4-4.1-8.7-6.6c-2.3-2.5-4-5.5-5.1-8.8c-1.1-3.3-1.6-7.2-1.6-11.5
		c0-10.5,2.9-18.4,8.8-23.5c5.9-5.2,13.9-7.7,24.1-7.7c4.8,0,9.2,0.5,13.2,1.6c4,1,7.5,2.7,10.4,5.1c2.9,2.3,5.2,5.3,6.8,8.9
		c1.6,3.6,2.5,8,2.5,13v3h-20.5c0-5.1-0.9-9-2.7-11.7c-1.8-2.7-4.8-4.1-8.9-4.1c-2.4,0-4.4,0.3-6,1c-1.6,0.7-2.9,1.6-3.8,2.8
		c-0.9,1.1-1.6,2.5-1.9,3.9c-0.3,1.5-0.5,3-0.5,4.6c0,3.3,0.7,6,2.1,8.3c1.4,2.2,4.4,4.3,8.9,6.2l16.5,7.1c4.1,1.8,7.4,3.6,10,5.6
		c2.6,1.9,4.6,4,6.2,6.2c1.5,2.2,2.6,4.7,3.2,7.4c0.6,2.7,0.9,5.7,0.9,8.9c0,11.2-3.2,19.4-9.7,24.5c-6.5,5.1-15.5,7.7-27.2,7.7
		c-12.1,0-20.8-2.6-26-7.9c-5.2-5.3-7.8-12.8-7.8-22.6v-4.3h21.4V838.9z"/>
	<path d="M1206.4,788.9v8.5h0.3c2.3-3.8,4.8-6.5,7.7-8.1s6.3-2.5,10.5-2.5c8.4,0,14.6,3.3,18.6,9.9c4,6.6,6,17.3,6,32.2
		c0,14.9-2,25.5-6,32c-4,6.5-10.2,9.7-18.6,9.7c-3.9,0-7.2-0.7-9.9-2.2c-2.7-1.4-5.2-3.7-7.4-6.9h-0.3v33.2h-20.5V788.9H1206.4z
		 M1209.3,848.7c1.3,4.4,4.3,6.6,8.9,6.6c4.5,0,7.4-2.2,8.7-6.6c1.3-4.4,2-11,2-19.7c0-8.7-0.7-15.3-2-19.7
		c-1.3-4.4-4.2-6.6-8.7-6.6c-4.6,0-7.5,2.2-8.9,6.6c-1.3,4.4-2,11-2,19.7C1207.3,837.7,1208,844.3,1209.3,848.7z"/>
	<path d="M1261,811.5c0-4.7,0.7-8.6,2.2-11.7s3.5-5.7,6-7.6c2.5-1.9,5.5-3.3,8.9-4.2c3.4-0.8,7.1-1.3,10.9-1.3
		c6.2,0,11.1,0.6,14.9,1.8c3.8,1.2,6.7,2.9,8.8,5.1c2.1,2.2,3.5,4.8,4.2,7.8c0.7,3,1.1,6.3,1.1,9.9v42.1c0,3.8,0.2,6.7,0.5,8.8
		c0.3,2.1,1,4.3,2,6.7h-19.6c-0.7-1.3-1.2-2.7-1.6-4.1c-0.3-1.4-0.7-2.9-1-4.2h-0.3c-2.4,4.2-5.1,6.9-8.3,8.1s-7.2,1.9-12.1,1.9
		c-3.6,0-6.6-0.6-9.1-1.9c-2.5-1.2-4.5-3-6-5.1c-1.5-2.2-2.6-4.6-3.3-7.4c-0.7-2.7-1-5.4-1-8.1c0-3.8,0.4-7,1.2-9.7
		c0.8-2.7,2-5.1,3.6-7s3.7-3.5,6.2-4.8c2.5-1.3,5.6-2.4,9.2-3.4l11.6-3.1c3.1-0.8,5.2-1.9,6.4-3.3c1.2-1.4,1.8-3.4,1.8-6.1
		c0-3.1-0.7-5.5-2.2-7.2c-1.4-1.7-3.9-2.6-7.4-2.6c-3.2,0-5.6,0.9-7.1,2.8c-1.6,1.9-2.4,4.4-2.4,7.6v2.2H1261V811.5z M1294.1,831.6
		c-1.6,0.6-3,1.1-4.3,1.4c-4.2,0.9-7.1,2.4-8.9,4.5c-1.8,2.1-2.7,4.9-2.7,8.5c0,3.1,0.6,5.7,1.8,7.9c1.2,2.2,3.2,3.3,6,3.3
		c1.4,0,2.8-0.2,4.3-0.7s2.9-1.2,4.1-2.2c1.2-1,2.3-2.3,3.1-3.9c0.8-1.6,1.2-3.5,1.2-5.7V829
		C1297.2,830.1,1295.7,830.9,1294.1,831.6z"/>
	<path d="M1354.1,761.5v17.6h-20.5v-17.6H1354.1z M1354.1,788.9V869h-20.5v-80.1H1354.1z"/>
	<path d="M1388.1,788.9v9.4h0.3c2.2-4,5-6.9,8.5-8.7c3.5-1.8,7.4-2.8,11.9-2.8c6.5,0,11.6,1.8,15.1,5.4c3.5,3.6,5.3,9.4,5.3,17.4
		V869h-20.5v-55.2c0-4.2-0.7-7.1-2.1-8.7c-1.4-1.6-3.6-2.5-6.7-2.5c-7.2,0-10.9,4.4-10.9,13.2V869h-20.5v-80.1H1388.1z"/>
	<path d="M1467.8,797c3.2,11.2,4.8,22,4.8,32.5c0,10.5-1.6,21.3-4.8,32.3c-3.2,11-8.6,22.4-16,34.1H1436c3.1-5.7,5.7-11.1,7.9-16.4
		c2.2-5.3,3.9-10.6,5.3-15.8c1.3-5.2,2.3-10.6,2.9-16.2c0.6-5.6,0.9-11.6,0.9-17.9c0-6.3-0.3-12.3-0.9-17.9
		c-0.6-5.6-1.6-11.1-2.9-16.4c-1.3-5.4-3.1-10.7-5.3-16c-2.2-5.3-4.8-10.8-7.9-16.4h15.8C1459.3,774.4,1464.6,785.9,1467.8,797z"/>
</g>
<text transform="matrix(0.8158 -0.5784 0.5784 0.8158 1523.4966 1070.2982)" font-family="'HelveticaNeue'" font-size="148.8095">#iodc16</text>
</svg>
