<?xml version="1.0" encoding="utf-8"?>
<!-- Generator: Adobe Illustrator 18.0.0, SVG Export Plug-In . SVG Version: 6.00 Build 0)  -->
<!DOCTYPE svg PUBLIC "-//W3C//DTD SVG 1.1//EN" "http://www.w3.org/Graphics/SVG/1.1/DTD/svg11.dtd">
<svg version="1.1"
	 id="Layer_1" xmlns:dc="http://purl.org/dc/elements/1.1/" xmlns:cc="http://creativecommons.org/ns#" xmlns:rdf="http://www.w3.org/1999/02/22-rdf-syntax-ns#" xmlns:svg="http://www.w3.org/2000/svg" xmlns:sodipodi="http://sodipodi.sourceforge.net/DTD/sodipodi-0.dtd" xmlns:inkscape="http://www.inkscape.org/namespaces/inkscape" sodipodi:docname="logo.svg" inkscape:version="0.91 r13725"
	 xmlns="http://www.w3.org/2000/svg" xmlns:xlink="http://www.w3.org/1999/xlink" x="0px" y="0px" viewBox="29 529.5 1797.5 200.5"
	 enable-background="new 29 529.5 1797.5 200.5" xml:space="preserve">
<sodipodi:namedview  inkscape:cy="26.550658" inkscape:cx="134.05183" inkscape:zoom="2.8425457" showguides="true" showgrid="false" guidetolerance="10" gridtolerance="10" objecttolerance="10" bordercolor="#666666" pagecolor="#ffffff" borderopacity="1" id="namedview3923" inkscape:current-layer="Layer_1" inkscape:window-maximized="1" inkscape:window-y="27" inkscape:window-x="0" inkscape:guide-bbox="true" inkscape:window-height="1016" inkscape:pageshadow="2" inkscape:pageopacity="0" inkscape:window-width="1920">
	<sodipodi:guide  orientation="0,1" position="162.93667,18.656871" id="guide3929"></sodipodi:guide>
	<sodipodi:guide  orientation="0,1" position="195.77276,6.7164737" id="guide3931"></sodipodi:guide>
</sodipodi:namedview>
<g enable-background="new    ">
	<path d="M38.3,582.7c2.4-6.8,5.8-12.8,10.3-17.9c4.5-5.1,10-9.1,16.5-12c6.5-2.9,13.9-4.3,22.1-4.3c8.3,0,15.7,1.4,22.2,4.3
		c6.5,2.9,12,6.9,16.5,12c4.5,5.1,7.9,11.1,10.3,17.9c2.4,6.8,3.6,14.3,3.6,22.2c0,7.8-1.2,15-3.6,21.8c-2.4,6.7-5.8,12.6-10.3,17.6
		c-4.5,5-10,8.9-16.5,11.8c-6.5,2.8-13.9,4.3-22.2,4.3c-8.2,0-15.6-1.4-22.1-4.3c-6.5-2.8-12.1-6.8-16.5-11.8
		c-4.5-5-7.9-10.9-10.3-17.6c-2.4-6.7-3.6-14-3.6-21.8C34.7,596.9,35.9,589.5,38.3,582.7z M59.8,618c1,4.2,2.7,8.1,5,11.5
		c2.3,3.4,5.3,6.1,9,8.2c3.7,2,8.2,3.1,13.5,3.1c5.3,0,9.8-1,13.5-3.1c3.7-2,6.7-4.8,9-8.2c2.3-3.4,4-7.2,5-11.5
		c1-4.2,1.6-8.6,1.6-13.1c0-4.7-0.5-9.2-1.6-13.6c-1-4.4-2.7-8.3-5-11.8c-2.3-3.4-5.3-6.2-9-8.2c-3.7-2-8.2-3.1-13.5-3.1
		c-5.3,0-9.8,1-13.5,3.1c-3.7,2-6.7,4.8-9,8.2c-2.3,3.4-4,7.4-5,11.8c-1,4.4-1.6,8.9-1.6,13.6C58.2,609.4,58.7,613.8,59.8,618z"/>
	<path d="M173.8,580.5v9.9h0.3c2.6-4.2,5.9-7.2,9.9-9.1c4-1.9,8.4-2.8,13.2-2.8c6.1,0,11.3,1.1,15.7,3.4c4.4,2.3,8,5.3,10.9,9.1
		c2.9,3.8,5,8.2,6.4,13.3c1.4,5,2.1,10.3,2.1,15.8c0,5.2-0.7,10.2-2.1,15c-1.4,4.8-3.5,9-6.4,12.7c-2.8,3.7-6.4,6.6-10.6,8.8
		c-4.2,2.2-9.2,3.3-14.9,3.3c-4.8,0-9.2-1-13.3-2.9c-4-1.9-7.4-4.8-10-8.6h-0.3V685h-21.3V580.5H173.8z M201.5,641.9
		c2.3-1.4,4.2-3.2,5.7-5.5c1.4-2.2,2.5-4.9,3.1-7.9c0.6-3,0.9-6,0.9-9.1c0-3.1-0.3-6.1-1-9.1c-0.7-3-1.7-5.7-3.2-8
		c-1.5-2.3-3.4-4.2-5.8-5.7c-2.3-1.4-5.2-2.2-8.6-2.2c-3.5,0-6.4,0.7-8.8,2.2c-2.3,1.4-4.2,3.3-5.7,5.6c-1.4,2.3-2.5,4.9-3.1,7.9
		c-0.6,3-0.9,6.1-0.9,9.3c0,3.1,0.3,6.1,1,9.1c0.6,3,1.7,5.6,3.1,7.9c1.4,2.2,3.4,4.1,5.8,5.5c2.4,1.4,5.3,2.1,8.7,2.1
		C196.2,644,199.1,643.3,201.5,641.9z"/>
	<path d="M267.9,639.4c3.2,3.1,7.8,4.6,13.8,4.6c4.3,0,8-1.1,11.1-3.2c3.1-2.1,5-4.4,5.7-6.8h18.7c-3,9.3-7.6,15.9-13.8,19.9
		c-6.2,4-13.7,6-22.5,6c-6.1,0-11.6-1-16.5-2.9c-4.9-1.9-9-4.7-12.4-8.3c-3.4-3.6-6-7.9-7.9-12.9c-1.8-5-2.8-10.5-2.8-16.5
		c0-5.8,0.9-11.2,2.8-16.2c1.9-5,4.6-9.3,8.1-13c3.5-3.6,7.7-6.5,12.5-8.6c4.8-2.1,10.2-3.1,16.1-3.1c6.6,0,12.3,1.3,17.2,3.8
		c4.9,2.5,8.9,6,12.1,10.3c3.1,4.3,5.4,9.2,6.8,14.7c1.4,5.5,1.9,11.2,1.5,17.2h-55.9C262.9,631.3,264.7,636.3,267.9,639.4z
		 M291.9,598.6c-2.5-2.8-6.4-4.2-11.6-4.2c-3.4,0-6.2,0.6-8.5,1.7c-2.2,1.1-4,2.6-5.4,4.3c-1.3,1.7-2.3,3.5-2.8,5.4
		c-0.5,1.9-0.9,3.6-1,5.1h34.6C296.2,605.5,294.5,601.4,291.9,598.6z"/>
	<path d="M351.3,580.5v10.8h0.4c2.7-4.5,6.2-7.8,10.5-9.8c4.3-2,8.7-3.1,13.2-3.1c5.7,0,10.4,0.8,14,2.3c3.6,1.5,6.5,3.7,8.6,6.4
		c2.1,2.7,3.6,6.1,4.4,10c0.8,3.9,1.3,8.3,1.3,13.1v47.6h-21.3v-43.7c0-6.4-1-11.2-3-14.3c-2-3.1-5.5-4.7-10.6-4.7
		c-5.8,0-10,1.7-12.6,5.2c-2.6,3.4-3.9,9.1-3.9,17v40.6h-21.3v-77.4H351.3z"/>
	<path d="M532.3,579.5c-1.4-2.2-3.1-4.2-5.2-5.9c-2.1-1.7-4.5-3-7.1-4c-2.6-0.9-5.4-1.4-8.3-1.4c-5.3,0-9.8,1-13.5,3.1
		c-3.7,2-6.7,4.8-9,8.2c-2.3,3.4-4,7.4-5,11.8c-1,4.4-1.6,8.9-1.6,13.6c0,4.5,0.5,8.9,1.6,13.1c1,4.2,2.7,8.1,5,11.5
		c2.3,3.4,5.3,6.1,9,8.2c3.7,2,8.2,3.1,13.5,3.1c7.2,0,12.8-2.2,16.8-6.6c4-4.4,6.5-10.2,7.4-17.4h22.8c-0.6,6.7-2.1,12.7-4.6,18.1
		c-2.5,5.4-5.8,10-9.9,13.8c-4.1,3.8-8.9,6.7-14.4,8.7c-5.5,2-11.5,3-18.1,3c-8.2,0-15.6-1.4-22.1-4.3c-6.5-2.8-12.1-6.8-16.5-11.8
		c-4.5-5-7.9-10.9-10.3-17.6c-2.4-6.7-3.6-14-3.6-21.8c0-8,1.2-15.4,3.6-22.2c2.4-6.8,5.8-12.8,10.3-17.9c4.5-5.1,10-9.1,16.5-12
		c6.5-2.9,13.9-4.3,22.1-4.3c5.9,0,11.5,0.8,16.7,2.5c5.2,1.7,9.9,4.2,14.1,7.4c4.1,3.2,7.6,7.3,10.3,12.1
		c2.7,4.8,4.4,10.3,5.1,16.5H535C534.6,584.3,533.7,581.8,532.3,579.5z"/>
	<path d="M573.1,568.5V551h21.3v17.5H573.1z M594.3,580.5v77.4h-21.3v-77.4H594.3z"/>
	<path d="M653.6,580.5v14.2h-15.6v38.3c0,3.6,0.6,6,1.8,7.2c1.2,1.2,3.6,1.8,7.2,1.8c1.2,0,2.3,0,3.4-0.1c1.1-0.1,2.1-0.2,3.1-0.4
		v16.5c-1.8,0.3-3.8,0.5-6,0.6c-2.2,0.1-4.3,0.2-6.4,0.2c-3.3,0-6.4-0.2-9.4-0.7c-2.9-0.4-5.5-1.3-7.8-2.6c-2.2-1.3-4-3.1-5.3-5.5
		c-1.3-2.4-1.9-5.5-1.9-9.4v-45.7h-12.9v-14.2h12.9v-23.2h21.3v23.2H653.6z"/>
	<path d="M664.4,568.5V551h21.3v17.5H664.4z M685.7,580.5v77.4h-21.3v-77.4H685.7z"/>
	<path d="M725.2,639.4c3.2,3.1,7.8,4.6,13.8,4.6c4.3,0,8-1.1,11.1-3.2c3.1-2.1,5-4.4,5.7-6.8h18.7c-3,9.3-7.6,15.9-13.8,19.9
		c-6.2,4-13.7,6-22.5,6c-6.1,0-11.6-1-16.5-2.9c-4.9-1.9-9-4.7-12.4-8.3c-3.4-3.6-6-7.9-7.9-12.9c-1.8-5-2.8-10.5-2.8-16.5
		c0-5.8,0.9-11.2,2.8-16.2c1.9-5,4.6-9.3,8.1-13c3.5-3.6,7.7-6.5,12.5-8.6c4.8-2.1,10.2-3.1,16.1-3.1c6.6,0,12.3,1.3,17.2,3.8
		c4.9,2.5,8.9,6,12.1,10.3c3.1,4.3,5.4,9.2,6.8,14.7c1.4,5.5,1.9,11.2,1.5,17.2H720C720.3,631.3,722,636.3,725.2,639.4z
		 M749.2,598.6c-2.5-2.8-6.4-4.2-11.6-4.2c-3.4,0-6.2,0.6-8.5,1.7c-2.2,1.1-4,2.6-5.4,4.3c-1.3,1.7-2.3,3.5-2.8,5.4
		c-0.5,1.9-0.9,3.6-1,5.1h34.6C753.6,605.5,751.8,601.4,749.2,598.6z"/>
	<path d="M806.3,638.7c0.9,1.6,2.2,3,3.7,4c1.5,1,3.2,1.8,5.2,2.3c1.9,0.5,4,0.7,6.1,0.7c1.5,0,3.1-0.2,4.7-0.5
		c1.6-0.3,3.1-0.9,4.5-1.6c1.3-0.7,2.5-1.7,3.4-3c0.9-1.2,1.3-2.8,1.3-4.7c0-3.2-2.1-5.6-6.4-7.2c-4.2-1.6-10.2-3.2-17.7-4.8
		c-3.1-0.7-6.1-1.5-9.1-2.5c-2.9-0.9-5.6-2.2-7.9-3.7c-2.3-1.5-4.1-3.5-5.5-5.8c-1.4-2.3-2.1-5.2-2.1-8.6c0-5,1-9.1,2.9-12.3
		c1.9-3.2,4.5-5.7,7.7-7.6c3.2-1.8,6.8-3.1,10.8-3.9c4-0.7,8.1-1.1,12.3-1.1c4.2,0,8.3,0.4,12.2,1.2c3.9,0.8,7.5,2.1,10.6,4
		c3.1,1.9,5.7,4.4,7.7,7.6c2,3.1,3.3,7.1,3.7,11.9h-20.2c-0.3-4.1-1.8-6.9-4.6-8.3c-2.8-1.4-6.1-2.2-9.9-2.2c-1.2,0-2.5,0.1-3.9,0.2
		c-1.4,0.1-2.7,0.5-3.8,1c-1.1,0.5-2.1,1.2-2.9,2.2c-0.8,1-1.2,2.2-1.2,3.8c0,1.9,0.7,3.4,2.1,4.6c1.4,1.2,3.2,2.2,5.5,2.9
		c2.2,0.7,4.8,1.4,7.7,2c2.9,0.6,5.8,1.2,8.8,1.9c3.1,0.7,6.1,1.5,9.1,2.5c2.9,1,5.6,2.3,7.9,4c2.3,1.6,4.1,3.7,5.5,6.1
		c1.4,2.4,2.1,5.5,2.1,9.1c0,5.1-1,9.4-3.1,12.8c-2,3.4-4.7,6.2-8,8.3c-3.3,2.1-7.1,3.6-11.3,4.4c-4.2,0.8-8.6,1.3-13,1.3
		c-4.5,0-8.9-0.4-13.2-1.3c-4.3-0.9-8.1-2.4-11.5-4.5c-3.3-2.1-6.1-4.9-8.2-8.3c-2.1-3.4-3.3-7.8-3.5-13h20.2
		C804.9,635.1,805.3,637,806.3,638.7z"/>
</g>
<g enable-background="new    ">
	<path fill="#438DFB" d="M931,631.6c1.3,2.5,3,4.5,5.2,6.1c2.1,1.5,4.7,2.7,7.6,3.4c2.9,0.7,5.9,1.1,9,1.1c2.1,0,4.3-0.2,6.7-0.5
		c2.4-0.3,4.6-1,6.7-2c2.1-1,3.8-2.4,5.2-4.1c1.4-1.7,2.1-4,2.1-6.7c0-2.9-0.9-5.2-2.8-7c-1.8-1.8-4.3-3.3-7.3-4.5
		c-3-1.2-6.4-2.2-10.2-3.1c-3.8-0.9-7.6-1.9-11.5-3c-4-1-7.9-2.2-11.7-3.7c-3.8-1.4-7.2-3.3-10.2-5.6c-3-2.3-5.4-5.2-7.3-8.6
		c-1.8-3.4-2.8-7.6-2.8-12.5c0-5.5,1.2-10.3,3.5-14.3c2.3-4,5.4-7.4,9.2-10.1c3.8-2.7,8.1-4.7,12.9-6c4.8-1.3,9.6-1.9,14.4-1.9
		c5.6,0,11,0.6,16.1,1.9c5.1,1.2,9.7,3.3,13.7,6.1c4,2.8,7.2,6.4,9.5,10.7c2.3,4.3,3.5,9.6,3.5,15.8H970c-0.2-3.2-0.9-5.8-2-7.9
		c-1.1-2.1-2.7-3.7-4.6-4.9c-1.9-1.2-4.1-2-6.5-2.5c-2.4-0.5-5.1-0.7-8-0.7c-1.9,0-3.8,0.2-5.7,0.6c-1.9,0.4-3.6,1.1-5.2,2.1
		c-1.5,1-2.8,2.2-3.8,3.7c-1,1.5-1.5,3.4-1.5,5.7c0,2.1,0.4,3.8,1.2,5.1c0.8,1.3,2.4,2.5,4.7,3.6c2.3,1.1,5.6,2.2,9.7,3.3
		c4.1,1.1,9.6,2.5,16.2,4.2c2,0.4,4.8,1.1,8.3,2.2c3.5,1,7.1,2.7,10.6,5c3.5,2.3,6.5,5.4,9.1,9.2c2.5,3.8,3.8,8.8,3.8,14.8
		c0,4.9-1,9.4-2.8,13.6c-1.9,4.2-4.7,7.8-8.5,10.9c-3.7,3-8.4,5.4-13.9,7.1c-5.5,1.7-12,2.5-19.2,2.5c-5.9,0-11.6-0.7-17.1-2.2
		c-5.5-1.4-10.4-3.7-14.7-6.8c-4.2-3.1-7.6-7-10.1-11.8c-2.5-4.8-3.7-10.5-3.6-17.1h22.8C929.1,626,929.7,629.1,931,631.6z"/>
	<path fill="#438DFB" d="M1060.4,657.9v-10.8h-0.4c-2.7,4.5-6.2,7.7-10.5,9.7c-4.3,2-8.7,3-13.2,3c-5.7,0-10.4-0.7-14-2.2
		c-3.6-1.5-6.5-3.6-8.6-6.4c-2.1-2.7-3.6-6.1-4.4-10c-0.8-3.9-1.3-8.3-1.3-13.1v-47.6h21.3v43.7c0,6.4,1,11.2,3,14.3
		c2,3.1,5.5,4.7,10.6,4.7c5.8,0,10-1.7,12.6-5.2c2.6-3.4,3.9-9.1,3.9-17v-40.6h21.3v77.4H1060.4z"/>
	<path fill="#438DFB" d="M1117.5,580.5V591h0.3c2.8-4,6.2-7.1,10.1-9.3c3.9-2.2,8.5-3.3,13.6-3.3c4.9,0,9.4,1,13.4,2.8
		c4,1.9,7.1,5.2,9.2,10c2.3-3.4,5.4-6.4,9.4-9c3.9-2.6,8.6-3.9,14-3.9c4.1,0,7.9,0.5,11.4,1.5c3.5,1,6.5,2.6,9,4.8
		c2.5,2.2,4.4,5.1,5.8,8.6c1.4,3.5,2.1,7.8,2.1,12.8v51.8h-21.3v-43.9c0-2.6-0.1-5-0.3-7.3c-0.2-2.3-0.7-4.3-1.6-6
		c-0.9-1.7-2.2-3-4-4c-1.7-1-4.1-1.5-7.1-1.5s-5.4,0.6-7.3,1.7c-1.8,1.1-3.3,2.6-4.3,4.5c-1,1.8-1.7,3.9-2.1,6.3
		c-0.4,2.3-0.5,4.7-0.5,7.1v43.1h-21.3v-43.4c0-2.3-0.1-4.6-0.2-6.8c-0.1-2.2-0.5-4.3-1.3-6.2c-0.7-1.9-2-3.4-3.7-4.6
		c-1.7-1.1-4.3-1.7-7.7-1.7c-1,0-2.3,0.2-4,0.7c-1.6,0.4-3.2,1.3-4.8,2.5c-1.5,1.2-2.9,3-4,5.4c-1.1,2.3-1.6,5.4-1.6,9.2v44.9h-21.3
		v-77.4H1117.5z"/>
	<path fill="#438DFB" d="M1253.1,580.5V591h0.3c2.8-4,6.2-7.1,10.1-9.3c3.9-2.2,8.5-3.3,13.6-3.3c4.9,0,9.4,1,13.4,2.8
		c4,1.9,7.1,5.2,9.2,10c2.3-3.4,5.4-6.4,9.4-9c3.9-2.6,8.6-3.9,14-3.9c4.1,0,7.9,0.5,11.4,1.5c3.5,1,6.5,2.6,9,4.8
		c2.5,2.2,4.4,5.1,5.8,8.6c1.4,3.5,2.1,7.8,2.1,12.8v51.8h-21.3v-43.9c0-2.6-0.1-5-0.3-7.3c-0.2-2.3-0.7-4.3-1.6-6
		c-0.9-1.7-2.2-3-4-4c-1.7-1-4.1-1.5-7.1-1.5s-5.4,0.6-7.3,1.7c-1.8,1.1-3.3,2.6-4.3,4.5c-1,1.8-1.7,3.9-2.1,6.3
		c-0.4,2.3-0.5,4.7-0.5,7.1v43.1h-21.3v-43.4c0-2.3-0.1-4.6-0.2-6.8c-0.1-2.2-0.5-4.3-1.3-6.2c-0.7-1.9-2-3.4-3.7-4.6
		c-1.7-1.1-4.3-1.7-7.7-1.7c-1,0-2.3,0.2-4,0.7c-1.6,0.4-3.2,1.3-4.8,2.5c-1.5,1.2-2.9,3-4,5.4c-1.1,2.3-1.6,5.4-1.6,9.2v44.9h-21.3
		v-77.4H1253.1z"/>
	<path fill="#438DFB" d="M1368.8,568.5V551h21.3v17.5H1368.8z M1390,580.5v77.4h-21.3v-77.4H1390z"/>
	<path fill="#438DFB" d="M1449.3,580.5v14.2h-15.6v38.3c0,3.6,0.6,6,1.8,7.2c1.2,1.2,3.6,1.8,7.2,1.8c1.2,0,2.3,0,3.4-0.1
		c1.1-0.1,2.1-0.2,3.1-0.4v16.5c-1.8,0.3-3.8,0.5-6,0.6c-2.2,0.1-4.3,0.2-6.4,0.2c-3.3,0-6.4-0.2-9.4-0.7c-2.9-0.4-5.5-1.3-7.8-2.6
		c-2.2-1.3-4-3.1-5.3-5.5c-1.3-2.4-1.9-5.5-1.9-9.4v-45.7h-12.9v-14.2h12.9v-23.2h21.3v23.2H1449.3z"/>
</g>
<g>
	<path d="M1501.1,576.7c1.6-5.1,4-9.6,7.2-13.5c3.2-3.8,7.2-6.8,12.1-9c4.8-2.1,10.4-3.2,16.7-3.2c4.8,0,9.4,0.7,13.7,2.2
		c4.3,1.5,8.2,3.6,11.5,6.4c3.3,2.8,5.9,6.2,7.9,10.3c1.9,4.1,2.9,8.7,2.9,13.8c0,5.3-0.8,9.8-2.5,13.6c-1.7,3.8-3.9,7.2-6.7,10.1
		c-2.8,2.9-6,5.6-9.5,8c-3.5,2.4-7.1,4.8-10.7,7.1c-3.6,2.3-7.1,4.9-10.5,7.6c-3.4,2.7-6.4,5.8-9,9.4h49.6v18.3h-77
		c0-6.1,0.9-11.4,2.6-15.9c1.7-4.5,4.1-8.5,7.1-12.1c3-3.5,6.5-6.8,10.6-9.8c4-3,8.3-6,12.8-9.1c2.3-1.6,4.7-3.2,7.3-4.9
		c2.6-1.6,5-3.5,7.1-5.5c2.1-2,3.9-4.2,5.4-6.7c1.4-2.5,2.2-5.3,2.2-8.5c0-5.1-1.5-9.1-4.4-11.9c-2.9-2.8-6.7-4.3-11.3-4.3
		c-3.1,0-5.7,0.7-7.9,2.2c-2.1,1.4-3.9,3.3-5.2,5.7c-1.3,2.3-2.2,4.9-2.8,7.8c-0.5,2.8-0.8,5.7-0.8,8.5H1499
		C1498.8,587.4,1499.5,581.8,1501.1,576.7z"/>
	<path d="M1583,579.4c2-6.9,4.8-12.5,8.3-16.7c3.5-4.2,7.6-7.2,12.2-9c4.6-1.8,9.6-2.7,14.8-2.7c5.3,0,10.3,0.9,14.9,2.7
		c4.6,1.8,8.7,4.8,12.3,9c3.5,4.2,6.3,9.8,8.4,16.7c2,6.9,3.1,15.5,3.1,25.7c0,10.5-1,19.2-3.1,26.3c-2,7-4.8,12.7-8.4,16.8
		c-3.5,4.2-7.6,7.2-12.3,9s-9.6,2.7-14.9,2.7c-5.2,0-10.1-0.9-14.8-2.7s-8.7-4.8-12.2-9c-3.5-4.2-6.3-9.8-8.3-16.8
		c-2-7-3.1-15.8-3.1-26.3C1579.9,594.9,1580.9,586.3,1583,579.4z M1601.5,615.9c0.2,4.2,0.8,8.3,1.9,12.3c1,3.9,2.7,7.3,5,10.1
		c2.3,2.8,5.6,4.2,9.9,4.2c4.4,0,7.8-1.4,10.1-4.2c2.3-2.8,4-6.2,5.1-10.1c1-3.9,1.7-8,1.9-12.3c0.2-4.2,0.3-7.9,0.3-10.9
		c0-1.8,0-4-0.1-6.5c-0.1-2.5-0.3-5.2-0.6-7.9c-0.4-2.7-0.8-5.4-1.5-8c-0.7-2.6-1.6-5-2.9-7.1c-1.3-2.1-2.9-3.8-4.9-5.1
		c-2-1.3-4.4-1.9-7.3-1.9c-2.9,0-5.3,0.7-7.3,1.9c-1.9,1.3-3.5,3-4.8,5.1c-1.2,2.1-2.2,4.5-2.9,7.1c-0.7,2.6-1.2,5.3-1.5,8
		c-0.3,2.7-0.5,5.3-0.5,7.9c-0.1,2.5-0.1,4.7-0.1,6.5C1601.2,608.1,1601.2,611.7,1601.5,615.9z"/>
	<path d="M1697.4,657.9v-68h-26.4v-16c3.7,0.1,7.3-0.2,10.7-0.8c3.4-0.6,6.5-1.8,9.3-3.4c2.7-1.6,5.1-3.8,7-6.5
		c1.9-2.7,3.1-6,3.7-10h16.9v104.8H1697.4z"/>
	<path d="M1796.6,570.9c-2.5-2.6-5.6-3.9-9.3-3.9c-3.8,0-7,1.1-9.5,3.4s-4.6,5-6.1,8.2c-1.5,3.2-2.6,6.7-3.3,10.4
		c-0.7,3.7-1.1,7-1.2,9.9l0.3,0.3c2.9-4.2,6.3-7.2,10.2-9s8.4-2.7,13.5-2.7c4.5,0,8.9,1,13.2,2.9c4.3,1.9,7.9,4.6,10.9,7.9
		c2.8,3.2,4.8,6.8,6.1,10.9c1.3,4.1,1.9,8.2,1.9,12.4c0,5.4-0.9,10.4-2.6,15c-1.7,4.6-4.2,8.7-7.5,12.1c-3.2,3.4-7.1,6.1-11.6,8.1
		c-4.5,1.9-9.5,2.9-15,2.9c-7.9,0-14.4-1.6-19.6-4.7c-5.2-3.1-9.3-7.3-12.4-12.4c-3.1-5.1-5.2-10.9-6.4-17.3
		c-1.2-6.4-1.8-13-1.8-19.7c0-6.5,0.7-13,2.2-19.5c1.5-6.5,3.9-12.4,7.2-17.6s7.5-9.5,12.7-12.8c5.2-3.3,11.5-4.9,19-4.9
		c4.5,0,8.7,0.7,12.6,1.9c3.9,1.3,7.3,3.2,10.3,5.6c3,2.4,5.4,5.5,7.3,9.1c1.9,3.6,3.1,7.7,3.7,12.4h-20.2
		C1800.7,576.6,1799.1,573.5,1796.6,570.9z M1778.7,605.1c-2.1,1-3.9,2.5-5.3,4.3c-1.4,1.8-2.4,3.9-3.1,6.2c-0.7,2.3-1,4.8-1,7.4
		c0,2.4,0.4,4.8,1.1,7.1c0.7,2.3,1.8,4.4,3.3,6.3c1.4,1.8,3.2,3.3,5.3,4.4c2.1,1.1,4.5,1.6,7.2,1.6c2.6,0,4.9-0.5,6.8-1.6
		c1.9-1.1,3.6-2.5,5-4.3c1.4-1.8,2.4-3.8,3.1-6.1c0.7-2.3,1-4.6,1-7c0-2.5-0.3-4.9-1-7.3c-0.7-2.3-1.6-4.4-2.9-6.3
		c-1.3-1.8-3-3.3-5-4.5c-2-1.1-4.4-1.7-7.1-1.7C1783.3,603.6,1780.8,604.1,1778.7,605.1z"/>
</g>
</svg>
